<svg width="78" height="78" viewBox="0 0 78 78" fill="none" xmlns="http://www.w3.org/2000/svg">
<path fill-rule="evenodd" clip-rule="evenodd" d="M25 28.9453C25 26.7362 26.7909 24.9453 29 24.9453H30.8288C31.976 24.9453 32.976 25.7261 33.2542 26.839L34.7286 32.7366C34.9725 33.7124 34.6079 34.7394 33.8032 35.3429L32.0784 36.6365C31.8993 36.7708 31.8604 36.9676 31.9107 37.1049C33.4247 41.238 36.7074 44.5206 40.8404 46.0346C40.9778 46.085 41.1745 46.046 41.3088 45.8669L42.6024 44.1421C43.2059 43.3374 44.2329 42.9728 45.2088 43.2167L51.1063 44.6911C52.2193 44.9693 53 45.9693 53 47.1165V48.9453C53 51.1545 51.2091 52.9453 49 52.9453H46C34.402 52.9453 25 43.5433 25 31.9453V28.9453Z" fill="#E91D24"/>
<circle cx="39" cy="38.9453" r="38" stroke="url(#paint0_linear_942_4728)" stroke-opacity="0.5"/>
<circle cx="39" cy="38.9453" r="38" stroke="url(#paint1_linear_942_4728)" stroke-opacity="0.5"/>
<circle cx="39" cy="38.9453" r="27" transform="rotate(-90 39 38.9453)" stroke="url(#paint2_linear_942_4728)" stroke-opacity="0.5"/>
<circle cx="39" cy="38.9453" r="27" transform="rotate(-90 39 38.9453)" stroke="url(#paint3_linear_942_4728)" stroke-opacity="0.5"/>
<defs>
<linearGradient id="paint0_linear_942_4728" x1="39.5" y1="11.4453" x2="39.5" y2="38.4453" gradientUnits="userSpaceOnUse">
<stop stop-color="#FF8084"/>
<stop offset="0.504977" stop-color="#5B5B5B" stop-opacity="0"/>
</linearGradient>
<linearGradient id="paint1_linear_942_4728" x1="39.5" y1="64.9453" x2="39.5" y2="38.4453" gradientUnits="userSpaceOnUse">
<stop stop-color="#FF8084"/>
<stop offset="0.498156" stop-color="#5B5B5B" stop-opacity="0"/>
</linearGradient>
<linearGradient id="paint2_linear_942_4728" x1="39.3571" y1="22.9453" x2="39.3571" y2="38.5882" gradientUnits="userSpaceOnUse">
<stop stop-color="#FF8084"/>
<stop offset="0.504977" stop-color="#5B5B5B" stop-opacity="0"/>
</linearGradient>
<linearGradient id="paint3_linear_942_4728" x1="39.5" y1="57.9453" x2="39.3571" y2="38.5882" gradientUnits="userSpaceOnUse">
<stop stop-color="#FF8084"/>
<stop offset="0.498156" stop-color="#5B5B5B" stop-opacity="0"/>
</linearGradient>
</defs>
</svg>
