<svg width="32" height="33" viewBox="0 0 32 33" fill="none" xmlns="http://www.w3.org/2000/svg">
<path d="M29.3346 16.5736C29.3346 15.1069 28.1346 13.9069 26.668 13.9069V9.9069C26.668 8.44023 25.468 7.24023 24.0013 7.24023H8.0013C6.53464 7.24023 5.33464 8.44023 5.33464 9.9069V13.9069C3.86797 13.9069 2.66797 15.1069 2.66797 16.5736V23.2402H4.4413L5.33464 25.9069H6.66797L7.5613 23.2402H24.4546L25.3346 25.9069H26.668L27.5613 23.2402H29.3346V16.5736ZM24.0013 13.9069H17.3346V9.9069H24.0013V13.9069ZM8.0013 9.9069H14.668V13.9069H8.0013V9.9069ZM5.33464 16.5736H26.668V20.5736H5.33464V16.5736Z" fill="#A0A0A0"/>
</svg>
