<svg width="61" height="45" viewBox="0 0 61 45" fill="none" xmlns="http://www.w3.org/2000/svg">
<mask id="path-1-inside-1_1092_12761" fill="white">
<path d="M0.622986 39.1106C0.498078 39.3331 0.467086 39.5961 0.535645 39.8417L1.67109 43.8716C1.7913 44.2956 2.17635 44.5732 2.59616 44.5732C2.68256 44.5732 2.76896 44.5614 2.85536 44.5375L12.0141 41.9805C12.5593 42.8506 13.4909 43.2954 14.3845 43.2954C14.5817 43.2954 14.7808 43.2748 14.9789 43.2325C16.1934 42.9732 17.1831 41.9257 17.2029 40.5036L24.9578 38.3051L23.1196 43.2776C23.0097 43.5725 23.0519 43.9026 23.2323 44.1604C23.4116 44.4187 23.7065 44.5727 24.0212 44.5727H36.604C36.9186 44.5727 37.2135 44.4187 37.3929 44.1604C37.5732 43.9021 37.6155 43.572 37.5056 43.2771L34.6534 35.5716L46.9012 32.1155C47.5593 33.3708 48.9779 33.9077 50.2537 33.5033C51.5619 33.0899 52.3067 31.8464 52.2161 30.6166L59.4246 28.5845C59.9355 28.4403 60.2332 27.9097 60.0895 27.3988L58.9541 23.3599C58.8846 23.1139 58.7212 22.9059 58.4976 22.781C58.2751 22.656 58.0121 22.6265 57.766 22.6946L50.603 24.7222L50.327 23.7525L53.0674 23.2116C55.713 22.6817 57.4977 19.9694 56.5808 17.1099L53.6976 10.3874C53.0177 8.81052 51.2765 8.01317 49.6348 8.53159C47.9175 9.0763 46.7025 10.5619 46.4693 12.3124L44.4563 13.7472C40.5826 14.054 40.6318 14.0201 40.4367 14.0825C39.1369 14.4948 38.4147 15.8885 38.827 17.1892C39.1249 18.1273 39.9364 18.78 40.8945 18.8922L42.8066 26.9285L18.2137 33.876L15.8928 25.9079C16.6494 25.3488 17.0545 24.3805 16.846 23.4013C16.5671 22.0972 15.225 21.2177 13.9102 21.4976C13.8388 21.5131 13.7684 21.5366 13.7017 21.568L10.2512 23.1932L7.79193 22.9411C6.72252 21.5349 4.93278 20.8466 3.17186 21.2196C1.49171 21.5774 0.367535 23.1345 0.557245 24.8429L1.38934 32.2031C1.66639 33.5038 2.48815 34.6298 3.64332 35.2919C4.79754 35.955 6.18562 36.0926 7.44784 35.6765L10.0944 34.7923L10.4062 36.0675L1.20151 38.6551C0.955448 38.7241 0.747894 38.888 0.622986 39.1106ZM26.2589 33.6018C26.1226 34.0193 26.03 34.4566 26.03 34.9191C26.03 35.2821 26.0892 35.6289 26.1748 35.9658L16.8176 38.6144L16.2306 36.4348L26.2589 33.6018ZM45.7732 28.0891L46.3407 30.2753L34.3778 33.6509C34.1339 32.8721 33.68 32.1944 33.0734 31.6767L45.7732 28.0891ZM27.9534 34.9191C27.9534 33.6193 29.0109 32.5618 30.3107 32.5618C31.6105 32.5618 32.668 33.6193 32.668 34.9191C32.668 36.2184 31.6105 37.2759 30.3107 37.2759C29.0109 37.2759 27.9534 36.2184 27.9534 34.9191ZM25.4017 42.6493L27.1856 37.8234C27.9678 38.6644 29.0744 39.1993 30.3107 39.1993C31.5472 39.1993 32.6539 38.6643 33.4361 37.8231L35.2225 42.6493H25.4017ZM57.3631 24.8077L57.9773 26.994L51.7497 28.7497L51.1298 26.5725L57.3631 24.8077ZM50.2171 10.3648C50.9045 10.146 51.6446 10.4827 51.931 11.1471L54.7804 17.7795C55.2656 19.312 54.3383 20.9945 52.6927 21.3253L49.4216 21.9705C48.6199 22.136 48.1044 22.9463 48.3294 23.7596L50.265 30.56C50.3962 31.0296 50.1379 31.5223 49.6733 31.6701C49.1839 31.8253 48.654 31.5445 48.5228 31.0268C48.437 30.6961 46.285 22.407 46.4191 22.9237C46.1457 21.8329 46.9047 20.7947 47.95 20.6552L49.9757 20.3936C50.6088 20.312 50.988 19.6452 50.7364 19.061L49.5065 16.1923L50.6529 15.3841C52.2237 14.5875 52.4944 12.4491 51.1628 11.2857C50.7093 10.8899 50.1206 10.7053 49.5295 10.7013C49.7389 10.5607 49.9676 10.4439 50.2171 10.3648ZM40.9401 15.9472L44.8714 15.6443C45.0451 15.6307 45.2132 15.5701 45.3551 15.4687L49.3484 12.6221C49.5324 12.562 49.7484 12.6042 49.8978 12.7343C50.2074 13.0045 50.1373 13.5072 49.7607 13.6796C49.6077 13.7506 49.7831 13.6512 45.8791 16.3961C45.7495 16.4872 45.5983 16.5431 45.4433 16.5576C42.6148 16.8373 41.5615 16.8999 41.3514 16.9657C41.0584 17.0577 40.7504 16.8896 40.6602 16.6074C40.5766 16.3449 40.7015 16.0655 40.9401 15.9472ZM42.834 18.7359L45.6237 18.4726C46.1111 18.4265 46.5816 18.2533 46.9854 17.9696L47.8998 17.325L48.4674 18.6491L47.6992 18.7482C45.4796 19.0451 44.0081 21.2166 44.5558 23.3999L45.2898 26.227L44.6588 26.4053L42.834 18.7359ZM15.7303 34.5776L14.9348 31.6245C14.6484 30.5943 13.9318 29.7317 12.9701 29.2583C12.0093 28.785 10.8917 28.7437 9.90092 29.1452L9.1881 29.4368L9.02739 28.005L10.1404 28.113C10.2315 28.1219 10.3226 28.1266 10.4137 28.1266C10.8157 28.1266 11.2045 28.0431 11.5717 27.8782L14.1284 26.7274L16.3629 34.3989L15.7303 34.5776ZM10.3217 25.1335C10.4917 25.1509 10.6701 25.1223 10.8288 25.0471L14.3957 23.3675C14.669 23.3383 14.9095 23.5403 14.9649 23.8023C15.0287 24.0995 14.8381 24.3925 14.5413 24.4559C14.3509 24.4961 13.2087 25.0448 10.7828 26.1239C10.6663 26.1765 10.5414 26.2032 10.4137 26.2032C5.80308 25.7758 5.81404 25.7336 5.55262 25.759C5.17666 25.759 4.88879 25.38 5.02106 25.003C5.0868 24.8128 5.24928 24.6738 5.44368 24.6339L10.3217 25.1335ZM9.99296 32.7985L6.84209 33.8508C6.08607 34.1006 5.29154 34.0189 4.59938 33.6235C3.91849 33.2328 3.43388 32.5689 3.2855 31.895L2.46937 24.6292C2.39048 23.9206 2.87509 23.2491 3.57288 23.1007C3.82557 23.0466 4.07891 23.0351 4.32749 23.0528C3.81888 23.3459 3.40559 23.7936 3.20473 24.3686C2.62753 26.0218 3.88039 27.6824 5.55168 27.6824C5.81111 27.6824 6.42951 27.7575 7.06995 27.815L7.41873 30.9169C7.45254 31.2165 7.62534 31.4827 7.88455 31.6367C8.14376 31.7903 8.46026 31.8138 8.73919 31.6992L10.626 30.9267C11.1124 30.7295 11.6431 30.7497 12.1211 30.984C12.5982 31.2188 12.94 31.6302 13.08 32.1331C13.1918 32.5484 15.3577 40.5911 15.2607 40.231C15.3999 40.7308 15.0837 41.2435 14.577 41.3514C14.1578 41.4408 13.6475 41.2072 13.5157 40.6855C13.4228 40.3057 11.8091 33.7085 11.8328 33.8053C11.7379 33.4249 11.4853 33.0971 11.1406 32.9065C10.795 32.714 10.3771 32.6736 9.99296 32.7985ZM10.8634 37.9373L11.4052 40.1533L3.26296 42.4267L2.64781 40.2465L10.8634 37.9373Z"/>
</mask>
<path d="M0.622986 39.1106C0.498078 39.3331 0.467086 39.5961 0.535645 39.8417L1.67109 43.8716C1.7913 44.2956 2.17635 44.5732 2.59616 44.5732C2.68256 44.5732 2.76896 44.5614 2.85536 44.5375L12.0141 41.9805C12.5593 42.8506 13.4909 43.2954 14.3845 43.2954C14.5817 43.2954 14.7808 43.2748 14.9789 43.2325C16.1934 42.9732 17.1831 41.9257 17.2029 40.5036L24.9578 38.3051L23.1196 43.2776C23.0097 43.5725 23.0519 43.9026 23.2323 44.1604C23.4116 44.4187 23.7065 44.5727 24.0212 44.5727H36.604C36.9186 44.5727 37.2135 44.4187 37.3929 44.1604C37.5732 43.9021 37.6155 43.572 37.5056 43.2771L34.6534 35.5716L46.9012 32.1155C47.5593 33.3708 48.9779 33.9077 50.2537 33.5033C51.5619 33.0899 52.3067 31.8464 52.2161 30.6166L59.4246 28.5845C59.9355 28.4403 60.2332 27.9097 60.0895 27.3988L58.9541 23.3599C58.8846 23.1139 58.7212 22.9059 58.4976 22.781C58.2751 22.656 58.0121 22.6265 57.766 22.6946L50.603 24.7222L50.327 23.7525L53.0674 23.2116C55.713 22.6817 57.4977 19.9694 56.5808 17.1099L53.6976 10.3874C53.0177 8.81052 51.2765 8.01317 49.6348 8.53159C47.9175 9.0763 46.7025 10.5619 46.4693 12.3124L44.4563 13.7472C40.5826 14.054 40.6318 14.0201 40.4367 14.0825C39.1369 14.4948 38.4147 15.8885 38.827 17.1892C39.1249 18.1273 39.9364 18.78 40.8945 18.8922L42.8066 26.9285L18.2137 33.876L15.8928 25.9079C16.6494 25.3488 17.0545 24.3805 16.846 23.4013C16.5671 22.0972 15.225 21.2177 13.9102 21.4976C13.8388 21.5131 13.7684 21.5366 13.7017 21.568L10.2512 23.1932L7.79193 22.9411C6.72252 21.5349 4.93278 20.8466 3.17186 21.2196C1.49171 21.5774 0.367535 23.1345 0.557245 24.8429L1.38934 32.2031C1.66639 33.5038 2.48815 34.6298 3.64332 35.2919C4.79754 35.955 6.18562 36.0926 7.44784 35.6765L10.0944 34.7923L10.4062 36.0675L1.20151 38.6551C0.955448 38.7241 0.747894 38.888 0.622986 39.1106ZM26.2589 33.6018C26.1226 34.0193 26.03 34.4566 26.03 34.9191C26.03 35.2821 26.0892 35.6289 26.1748 35.9658L16.8176 38.6144L16.2306 36.4348L26.2589 33.6018ZM45.7732 28.0891L46.3407 30.2753L34.3778 33.6509C34.1339 32.8721 33.68 32.1944 33.0734 31.6767L45.7732 28.0891ZM27.9534 34.9191C27.9534 33.6193 29.0109 32.5618 30.3107 32.5618C31.6105 32.5618 32.668 33.6193 32.668 34.9191C32.668 36.2184 31.6105 37.2759 30.3107 37.2759C29.0109 37.2759 27.9534 36.2184 27.9534 34.9191ZM25.4017 42.6493L27.1856 37.8234C27.9678 38.6644 29.0744 39.1993 30.3107 39.1993C31.5472 39.1993 32.6539 38.6643 33.4361 37.8231L35.2225 42.6493H25.4017ZM57.3631 24.8077L57.9773 26.994L51.7497 28.7497L51.1298 26.5725L57.3631 24.8077ZM50.2171 10.3648C50.9045 10.146 51.6446 10.4827 51.931 11.1471L54.7804 17.7795C55.2656 19.312 54.3383 20.9945 52.6927 21.3253L49.4216 21.9705C48.6199 22.136 48.1044 22.9463 48.3294 23.7596L50.265 30.56C50.3962 31.0296 50.1379 31.5223 49.6733 31.6701C49.1839 31.8253 48.654 31.5445 48.5228 31.0268C48.437 30.6961 46.285 22.407 46.4191 22.9237C46.1457 21.8329 46.9047 20.7947 47.95 20.6552L49.9757 20.3936C50.6088 20.312 50.988 19.6452 50.7364 19.061L49.5065 16.1923L50.6529 15.3841C52.2237 14.5875 52.4944 12.4491 51.1628 11.2857C50.7093 10.8899 50.1206 10.7053 49.5295 10.7013C49.7389 10.5607 49.9676 10.4439 50.2171 10.3648ZM40.9401 15.9472L44.8714 15.6443C45.0451 15.6307 45.2132 15.5701 45.3551 15.4687L49.3484 12.6221C49.5324 12.562 49.7484 12.6042 49.8978 12.7343C50.2074 13.0045 50.1373 13.5072 49.7607 13.6796C49.6077 13.7506 49.7831 13.6512 45.8791 16.3961C45.7495 16.4872 45.5983 16.5431 45.4433 16.5576C42.6148 16.8373 41.5615 16.8999 41.3514 16.9657C41.0584 17.0577 40.7504 16.8896 40.6602 16.6074C40.5766 16.3449 40.7015 16.0655 40.9401 15.9472ZM42.834 18.7359L45.6237 18.4726C46.1111 18.4265 46.5816 18.2533 46.9854 17.9696L47.8998 17.325L48.4674 18.6491L47.6992 18.7482C45.4796 19.0451 44.0081 21.2166 44.5558 23.3999L45.2898 26.227L44.6588 26.4053L42.834 18.7359ZM15.7303 34.5776L14.9348 31.6245C14.6484 30.5943 13.9318 29.7317 12.9701 29.2583C12.0093 28.785 10.8917 28.7437 9.90092 29.1452L9.1881 29.4368L9.02739 28.005L10.1404 28.113C10.2315 28.1219 10.3226 28.1266 10.4137 28.1266C10.8157 28.1266 11.2045 28.0431 11.5717 27.8782L14.1284 26.7274L16.3629 34.3989L15.7303 34.5776ZM10.3217 25.1335C10.4917 25.1509 10.6701 25.1223 10.8288 25.0471L14.3957 23.3675C14.669 23.3383 14.9095 23.5403 14.9649 23.8023C15.0287 24.0995 14.8381 24.3925 14.5413 24.4559C14.3509 24.4961 13.2087 25.0448 10.7828 26.1239C10.6663 26.1765 10.5414 26.2032 10.4137 26.2032C5.80308 25.7758 5.81404 25.7336 5.55262 25.759C5.17666 25.759 4.88879 25.38 5.02106 25.003C5.0868 24.8128 5.24928 24.6738 5.44368 24.6339L10.3217 25.1335ZM9.99296 32.7985L6.84209 33.8508C6.08607 34.1006 5.29154 34.0189 4.59938 33.6235C3.91849 33.2328 3.43388 32.5689 3.2855 31.895L2.46937 24.6292C2.39048 23.9206 2.87509 23.2491 3.57288 23.1007C3.82557 23.0466 4.07891 23.0351 4.32749 23.0528C3.81888 23.3459 3.40559 23.7936 3.20473 24.3686C2.62753 26.0218 3.88039 27.6824 5.55168 27.6824C5.81111 27.6824 6.42951 27.7575 7.06995 27.815L7.41873 30.9169C7.45254 31.2165 7.62534 31.4827 7.88455 31.6367C8.14376 31.7903 8.46026 31.8138 8.73919 31.6992L10.626 30.9267C11.1124 30.7295 11.6431 30.7497 12.1211 30.984C12.5982 31.2188 12.94 31.6302 13.08 32.1331C13.1918 32.5484 15.3577 40.5911 15.2607 40.231C15.3999 40.7308 15.0837 41.2435 14.577 41.3514C14.1578 41.4408 13.6475 41.2072 13.5157 40.6855C13.4228 40.3057 11.8091 33.7085 11.8328 33.8053C11.7379 33.4249 11.4853 33.0971 11.1406 32.9065C10.795 32.714 10.3771 32.6736 9.99296 32.7985ZM10.8634 37.9373L11.4052 40.1533L3.26296 42.4267L2.64781 40.2465L10.8634 37.9373Z" fill="#A0A0A0" stroke="#1A1A1A" stroke-width="0.8" mask="url(#path-1-inside-1_1092_12761)"/>
<path d="M4.64214 10.9629L4.64201 10.9629C2.41248 11.4381 0.984358 13.6394 1.45911 15.8694L4.64214 10.9629ZM4.64214 10.9629C6.9056 10.4789 9.08311 11.9599 9.54847 14.1453L9.54848 14.1454C10.0251 16.3809 8.60077 18.5755 6.36558 19.0518L6.36544 19.0519M4.64214 10.9629L6.36544 19.0519M6.36544 19.0519C4.10701 19.5348 1.9252 18.0578 1.45911 15.8695L6.36544 19.0519ZM8.05857 14.4626C7.87981 13.6233 7.42607 13.0477 6.84794 12.7205C6.27414 12.3957 5.59177 12.323 4.96064 12.4586C4.32953 12.5942 3.73674 12.9408 3.34547 13.4717C2.95126 14.0065 2.771 14.7162 2.94901 15.5522L2.94903 15.5523C3.24331 16.9315 4.65715 17.8603 6.04892 17.5619C7.46046 17.2606 8.35936 15.874 8.05857 14.4626ZM8.05857 14.4626L7.86295 14.5042L8.05857 14.4626Z" fill="#A0A0A0" stroke="#1A1A1A" stroke-width="0.4"/>
<path d="M46.1892 7.39962L46.1897 7.39947C47.5618 6.96362 48.3244 5.4928 47.8901 4.11976L47.89 4.11961C47.5444 3.02986 46.5432 2.29664 45.4013 2.29664C43.635 2.29664 42.3775 4.02019 42.9097 5.69948L42.9097 5.69955C43.3458 7.07405 44.8026 7.83634 46.1892 7.39962ZM41.4577 6.15952C40.6153 3.50057 42.6068 0.773242 45.4013 0.773242C47.2111 0.773242 48.7945 1.93245 49.342 3.65964C50.0308 5.83271 48.8222 8.16217 46.65 8.85146C44.502 9.53274 42.1612 8.37796 41.4577 6.15952Z" fill="#A0A0A0" stroke="#1A1A1A" stroke-width="0.4"/>
</svg>
