<svg width="28" height="28" viewBox="0 0 28 28" fill="none" xmlns="http://www.w3.org/2000/svg">
<g clip-path="url(#clip0_1167_17797)">
<path d="M27.8486 14.104C27.8486 6.45694 21.6494 0.257812 14.0024 0.257812C6.35538 0.257812 0.15625 6.45694 0.15625 14.104C0.15625 21.0149 5.21956 26.7432 11.8389 27.7819V18.1064H8.32332V14.104H11.8389V11.0535C11.8389 7.58329 13.9061 5.66647 17.0688 5.66647C18.5833 5.66647 20.1683 5.9369 20.1683 5.9369V9.34435H18.4224C16.7024 9.34435 16.1659 10.4117 16.1659 11.5078V14.104H20.006L19.3921 18.1064H16.1659V27.7819C22.7852 26.7432 27.8486 21.0149 27.8486 14.104Z" fill="#A8A8A8"/>
</g>
<defs>
<clipPath id="clip0_1167_17797">
<rect width="27.6923" height="27.6923" fill="white" transform="translate(0.15625 0.257812)"/>
</clipPath>
</defs>
</svg>
