<svg width="50" height="49" viewBox="0 0 50 49" fill="none" xmlns="http://www.w3.org/2000/svg">
<rect x="0.326172" y="0.125" width="48.75" height="48.75" rx="24.375" fill="#121212"/>
<g clip-path="url(#clip0_1367_17632)">
<path d="M35.9512 24.5C35.9512 18.2868 30.9144 13.25 24.7012 13.25C18.488 13.25 13.4512 18.2868 13.4512 24.5C13.4512 30.1151 17.5651 34.7694 22.9434 35.6133V27.752H20.0869V24.5H22.9434V22.0215C22.9434 19.202 24.6229 17.6445 27.1927 17.6445C28.4231 17.6445 29.7109 17.8643 29.7109 17.8643V20.6328H28.2924C26.8949 20.6328 26.459 21.5001 26.459 22.3906V24.5H29.5791L29.0803 27.752H26.459V35.6133C31.8372 34.7694 35.9512 30.1151 35.9512 24.5Z" fill="#E91D24"/>
</g>
<defs>
<clipPath id="clip0_1367_17632">
<rect width="22.5" height="22.5" fill="white" transform="translate(13.4512 13.25)"/>
</clipPath>
</defs>
</svg>
