<svg width="59" height="45" viewBox="0 0 59 45" fill="none" xmlns="http://www.w3.org/2000/svg">
<path d="M30.1458 40.737C28.6583 40.737 27.1055 40.1759 25.8006 39.0928C23.9086 37.527 22.3036 34.5258 23.4779 30.7678C23.5432 30.559 23.7128 30.3894 23.9216 30.3372C24.1304 30.2719 24.3653 30.3241 24.5349 30.4807L25.9441 31.7203C26.2443 30.4807 26.7662 29.4629 27.2099 28.6017C28.0841 26.9054 28.5669 25.9659 27.1968 24.4653C26.988 24.2304 26.9619 23.8781 27.1577 23.6302C27.3534 23.3823 27.6927 23.304 27.9797 23.4475C28.2277 23.578 33.6559 26.4878 33.6037 30.6765C33.943 30.6634 34.4388 30.4938 34.9347 29.737C35.0913 29.5021 35.3653 29.3977 35.6393 29.4629C35.9133 29.5282 36.109 29.75 36.1351 30.0371C36.8398 36.8615 34.3083 39.2886 32.7294 40.1237C31.9335 40.5282 31.0462 40.737 30.1458 40.737ZM24.4827 32.1509C24.0912 34.4475 24.8611 36.6136 26.6357 38.075C28.332 39.4843 30.4851 39.8235 32.1162 38.9493C34.0865 37.8923 35.0782 35.2957 34.9347 31.5638C34.0213 32.1379 33.0948 31.9944 32.6251 31.7595C32.3771 31.629 32.2336 31.368 32.2727 31.094C32.5598 28.9801 30.8374 27.1142 29.3498 25.9398C29.4673 27.0881 28.9192 28.132 28.3712 29.202C27.8232 30.2719 27.1968 31.4855 27.0402 33.0513C27.0141 33.2992 26.8575 33.508 26.6357 33.5993C26.4139 33.6907 26.1529 33.6385 25.9702 33.4819L24.4827 32.1509Z" fill="#A0A0A0"/>
<path d="M29.6642 40.7244C28.9726 40.7244 28.2941 40.4764 27.7591 39.9936C27.1588 39.4325 25.4886 37.2665 29.1553 32.6864C29.2727 32.5298 29.4685 32.4385 29.6642 32.4385C29.8599 32.4385 30.0556 32.5298 30.1731 32.6864C33.8398 37.2534 32.1565 39.4325 31.5562 39.9936C31.0343 40.4895 30.3558 40.7244 29.6642 40.7244ZM29.6642 34.1739C27.8243 36.7184 27.9026 38.3495 28.6464 39.0411C29.1944 39.55 30.1209 39.55 30.6689 39.0411C31.4258 38.3495 31.504 36.7315 29.6642 34.1739Z" fill="#A0A0A0"/>
<path d="M53.1759 40.3583H38.7441C38.3787 40.3583 38.0916 40.0713 38.0916 39.7059C38.0916 39.3405 38.3787 39.0535 38.7441 39.0535H53.1759C53.5413 39.0535 53.8283 39.3405 53.8283 39.7059C53.8283 40.0713 53.5282 40.3583 53.1759 40.3583ZM20.5803 40.3583H6.14853C5.78316 40.3583 5.49609 40.0713 5.49609 39.7059C5.49609 39.3405 5.78316 39.0535 6.14853 39.0535H20.5803C20.9457 39.0535 21.2328 39.3405 21.2328 39.7059C21.2328 40.0713 20.9457 40.3583 20.5803 40.3583ZM53.1759 25.0392H38.7441C38.3787 25.0392 38.0916 24.7522 38.0916 24.3868C38.0916 24.0214 38.3787 23.7344 38.7441 23.7344H53.1759C53.5413 23.7344 53.8283 24.0214 53.8283 24.3868C53.8283 24.7522 53.5282 25.0392 53.1759 25.0392ZM20.5803 25.0392H6.14853C5.78316 25.0392 5.49609 24.7522 5.49609 24.3868C5.49609 24.0214 5.78316 23.7344 6.14853 23.7344H20.5803C20.9457 23.7344 21.2328 24.0214 21.2328 24.3868C21.2328 24.7522 20.9457 25.0392 20.5803 25.0392Z" fill="#A0A0A0"/>
<path d="M58.1735 44.3902H53.1759C52.8105 44.3902 52.5234 44.1031 52.5234 43.7377V20.3546C52.5234 19.9892 52.8105 19.7021 53.1759 19.7021H58.1735C58.5389 19.7021 58.8259 19.9892 58.8259 20.3546V43.7377C58.8259 44.09 58.5389 44.3902 58.1735 44.3902ZM53.8283 43.0853H57.5211V21.007H53.8283V43.0853Z" fill="#A0A0A0"/>
<path d="M6.15007 44.3902H1.15243C0.787071 44.3902 0.5 44.1031 0.5 43.7377V20.3546C0.5 19.9892 0.787071 19.7021 1.15243 19.7021H6.15007C6.51543 19.7021 6.8025 19.9892 6.8025 20.3546V43.7377C6.8025 44.09 6.51543 44.3902 6.15007 44.3902ZM1.80487 43.0853H5.49764V21.007H1.80487V43.0853Z" fill="#A0A0A0"/>
<path d="M29.6634 44.5729C22.7476 44.5729 17.1367 38.9489 17.1367 32.0462C17.1367 25.1435 22.7607 19.5195 29.6634 19.5195C36.5662 19.5195 42.1901 25.1435 42.1901 32.0462C42.1901 38.9489 36.5792 44.5729 29.6634 44.5729ZM29.6634 20.8244C23.4784 20.8244 18.4416 25.8612 18.4416 32.0462C18.4416 38.2313 23.4784 43.268 29.6634 43.268C35.8485 43.268 40.8853 38.2313 40.8853 32.0462C40.8853 25.8612 35.8485 20.8244 29.6634 20.8244Z" fill="#A0A0A0"/>
<path d="M12.0626 40.3583C11.6972 40.3583 11.4102 40.0713 11.4102 39.7059V24.3868C11.4102 24.0214 11.6972 23.7344 12.0626 23.7344C12.428 23.7344 12.715 24.0214 12.715 24.3868V39.7059C12.715 40.0713 12.428 40.3583 12.0626 40.3583Z" fill="#A0A0A0"/>
<path d="M47.2657 40.3583C46.9004 40.3583 46.6133 40.0713 46.6133 39.7059V24.3868C46.6133 24.0214 46.9004 23.7344 47.2657 23.7344C47.6311 23.7344 47.9181 24.0214 47.9181 24.3868V39.7059C47.9181 40.0713 47.618 40.3583 47.2657 40.3583Z" fill="#A0A0A0"/>
<path d="M31.7394 20.9946C31.374 20.9946 31.087 20.7075 31.087 20.3421V16.2579C31.087 15.8925 31.374 15.6055 31.7394 15.6055C32.1048 15.6055 32.3918 15.8925 32.3918 16.2579V20.3421C32.3918 20.7075 32.0917 20.9946 31.7394 20.9946ZM27.5899 20.9946C27.2246 20.9946 26.9375 20.7075 26.9375 20.3421V16.2579C26.9375 15.8925 27.2246 15.6055 27.5899 15.6055C27.9553 15.6055 28.2424 15.8925 28.2424 16.2579V20.3421C28.2424 20.7075 27.9553 20.9946 27.5899 20.9946Z" fill="#A0A0A0"/>
<path d="M31.8179 10.6076C31.4525 10.6076 31.1654 10.3205 31.1654 9.95514V5.23153C31.1654 4.86617 31.4525 4.5791 31.8179 4.5791C32.1832 4.5791 32.4703 4.86617 32.4703 5.23153V9.95514C32.4703 10.3075 32.1832 10.6076 31.8179 10.6076ZM27.5118 10.6076C27.1464 10.6076 26.8594 10.3205 26.8594 9.95514V5.23153C26.8594 4.86617 27.1464 4.5791 27.5118 4.5791C27.8772 4.5791 28.1642 4.86617 28.1642 5.23153V9.95514C28.1642 10.3075 27.8641 10.6076 27.5118 10.6076Z" fill="#A0A0A0"/>
<path d="M40.012 5.88404H19.3168C17.8554 5.88404 16.668 4.69661 16.668 3.23516C16.668 1.77372 17.8554 0.573242 19.3168 0.573242H40.012C41.4735 0.573242 42.6609 1.76067 42.6609 3.23516C42.6609 4.68356 41.4735 5.88404 40.012 5.88404ZM19.3168 1.87811C18.5731 1.87811 17.9728 2.47834 17.9728 3.23516C17.9728 3.97894 18.5731 4.57917 19.3168 4.57917H40.012C40.7558 4.57917 41.356 3.97894 41.356 3.23516C41.356 2.49139 40.7558 1.87811 40.012 1.87811H19.3168Z" fill="#A0A0A0"/>
<path d="M29.6644 17.5232C27.2113 17.5232 25.2148 15.5268 25.2148 13.0736C25.2148 10.6205 27.2113 8.62402 29.6644 8.62402C32.1176 8.62402 34.114 10.6205 34.114 13.0736C34.114 15.5268 32.1176 17.5232 29.6644 17.5232ZM29.6644 9.92889C27.929 9.92889 26.5197 11.3381 26.5197 13.0736C26.5197 14.8091 27.929 16.2183 29.6644 16.2183C31.3999 16.2183 32.8092 14.8091 32.8092 13.0736C32.8092 11.3381 31.3999 9.92889 29.6644 9.92889Z" fill="#A0A0A0"/>
</svg>
