<svg width="59" height="45" viewBox="0 0 59 45" fill="none" xmlns="http://www.w3.org/2000/svg">
<path d="M43.2973 4.22833V4.37833H43.4473H56.2402C57.6687 4.37833 58.8315 5.54112 58.8315 6.96965V38.1768C58.8315 39.3 58.1078 40.2506 57.1035 40.6087L57.0039 40.6443V40.75V43.6595C57.0039 44.0811 56.6625 44.4232 56.2402 44.4232H3.24132C2.81894 44.4232 2.47755 44.0811 2.47755 43.6595V40.75V40.6443L2.37793 40.6087C1.37371 40.2506 0.65 39.3 0.65 38.1768V6.96965C0.65 5.54112 1.81278 4.37833 3.24132 4.37833H16.0341H16.1841V4.22833V1.48702C16.1841 1.06536 16.5255 0.723242 16.9479 0.723242H42.5336C42.9559 0.723242 43.2973 1.06536 43.2973 1.48702V4.22833ZM17.8617 2.25079H17.7117V2.40079V4.22833V4.37833H17.8617H41.6198H41.7698V4.22833V2.40079V2.25079H41.6198H17.8617ZM4.00509 42.7457V42.8957H4.15509H55.3264H55.4764V42.7457V40.9182V40.7682H55.3264H11.4653C11.0429 40.7682 10.7015 40.426 10.7015 40.0044C10.7015 39.5827 11.0429 39.2406 11.4653 39.2406H24.2581H24.4081V39.0906V36.2113C24.4081 35.6251 23.9317 35.1475 23.3443 35.1475H2.32755H2.17755V35.2975V38.1768C2.17755 38.7631 2.65398 39.2406 3.24132 39.2406H7.81018C8.23256 39.2406 8.57396 39.5827 8.57396 40.0044C8.57396 40.426 8.23256 40.7682 7.81018 40.7682H4.15509H4.00509V40.9182V42.7457ZM25.9356 39.0906V39.2406H26.0856H56.2402C56.8275 39.2406 57.3039 38.7631 57.3039 38.1768V6.96965C57.3039 6.38342 56.8275 5.90588 56.2402 5.90588H3.24132C2.65398 5.90588 2.17755 6.38342 2.17755 6.96965V33.47V33.62H2.32755H23.3443C24.7729 33.62 25.9356 34.7828 25.9356 36.2113V39.0906Z" fill="#A0A0A0" stroke="#1A1A1A" stroke-width="0.3"/>
<path d="M20.6042 18.9981H20.7542V18.8481V9.71036V9.56036H20.6042H5.9838H5.8338V9.71036V18.8481V18.9981H5.9838H20.6042ZM5.07002 8.03281H21.5179C21.9403 8.03281 22.2817 8.37493 22.2817 8.79659V19.7619C22.2817 20.1835 21.9403 20.5256 21.5179 20.5256H5.07002C4.64765 20.5256 4.30625 20.1835 4.30625 19.7619V8.79659C4.30625 8.37493 4.64765 8.03281 5.07002 8.03281Z" fill="#A0A0A0" stroke="#1A1A1A" stroke-width="0.3"/>
<path d="M12.6544 26.0532L12.3983 26.3092H12.7604H16.0372C16.3461 26.3092 16.6254 26.4951 16.7428 26.7801L16.743 26.7805C16.8613 27.066 16.7957 27.3945 16.5772 27.613L12.9221 31.2681C12.7731 31.4171 12.5778 31.4919 12.3821 31.4919C12.1864 31.4919 11.9911 31.4171 11.8421 31.2681C11.5434 30.9694 11.5434 30.4868 11.8421 30.1881L13.9374 28.0928L14.1935 27.8368H13.8314H10.5546C10.2457 27.8368 9.96633 27.6509 9.84895 27.3659L9.84882 27.3655C9.73046 27.08 9.79608 26.7515 10.0146 26.533L13.6697 22.8779C13.9684 22.5792 14.4509 22.5792 14.7496 22.8779C15.0483 23.1766 15.0483 23.6592 14.7496 23.9579L12.6544 26.0532Z" fill="#A0A0A0" stroke="#1A1A1A" stroke-width="0.3"/>
<path d="M29.7416 9.56036H29.5916V9.71036V26.1583V26.3083H29.7416H40.7069H40.8569V26.1583V9.71036V9.56036H40.7069H29.7416ZM53.4997 26.3083H53.6497V26.1583V9.71036V9.56036H53.4997H42.5344H42.3844V9.71036V26.1583V26.3083H42.5344H53.4997ZM28.8278 8.03281H54.4135C54.8359 8.03281 55.1773 8.37493 55.1773 8.79659V27.072C55.1773 27.4937 54.8359 27.8358 54.4135 27.8358H28.8278C28.4055 27.8358 28.0641 27.4937 28.0641 27.072V8.79659C28.0641 8.37493 28.4055 8.03281 28.8278 8.03281Z" fill="#A0A0A0" stroke="#1A1A1A" stroke-width="0.3"/>
<path d="M46.0408 18.8487C46.0408 19.2704 45.6994 19.6125 45.2771 19.6125C44.8547 19.6125 44.5133 19.2704 44.5133 18.8487V17.0212C44.5133 16.5995 44.8547 16.2574 45.2771 16.2574C45.6994 16.2574 46.0408 16.5995 46.0408 17.0212V18.8487Z" fill="#A0A0A0" stroke="#1A1A1A" stroke-width="0.3"/>
<path d="M37.2008 17.0212C37.2008 16.5995 37.5422 16.2574 37.9646 16.2574C38.3869 16.2574 38.7283 16.5995 38.7283 17.0212V18.8487C38.7283 19.2704 38.3869 19.6125 37.9646 19.6125C37.5422 19.6125 37.2008 19.2704 37.2008 18.8487V17.0212Z" fill="#A0A0A0" stroke="#1A1A1A" stroke-width="0.3"/>
<path d="M48.9333 31.7916H54.4159C54.8383 31.7916 55.1797 32.1337 55.1797 32.5554C55.1797 32.977 54.8383 33.3191 54.4159 33.3191H48.9333C48.5109 33.3191 48.1695 32.977 48.1695 32.5554C48.1695 32.1337 48.5109 31.7916 48.9333 31.7916Z" fill="#A0A0A0" stroke="#1A1A1A" stroke-width="0.3"/>
<path d="M48.9333 35.4469H54.4159C54.8383 35.4469 55.1797 35.789 55.1797 36.2106C55.1797 36.6323 54.8383 36.9744 54.4159 36.9744H48.9333C48.5109 36.9744 48.1695 36.6323 48.1695 36.2106C48.1695 35.789 48.5109 35.4469 48.9333 35.4469Z" fill="#A0A0A0" stroke="#1A1A1A" stroke-width="0.3"/>
<path d="M39.7927 31.7916H45.2753C45.6977 31.7916 46.0391 32.1337 46.0391 32.5554C46.0391 32.977 45.6977 33.3191 45.2753 33.3191H39.7927C39.3703 33.3191 39.0289 32.977 39.0289 32.5554C39.0289 32.1337 39.3703 31.7916 39.7927 31.7916Z" fill="#A0A0A0" stroke="#1A1A1A" stroke-width="0.3"/>
<path d="M39.7927 35.4469H45.2753C45.6977 35.4469 46.0391 35.789 46.0391 36.2106C46.0391 36.6323 45.6977 36.9744 45.2753 36.9744H39.7927C39.3703 36.9744 39.0289 36.6323 39.0289 36.2106C39.0289 35.789 39.3703 35.4469 39.7927 35.4469Z" fill="#A0A0A0" stroke="#1A1A1A" stroke-width="0.3"/>
<path d="M30.656 31.7916H36.1386C36.561 31.7916 36.9024 32.1337 36.9024 32.5554C36.9024 32.977 36.561 33.3191 36.1386 33.3191H30.656C30.2336 33.3191 29.8922 32.977 29.8922 32.5554C29.8922 32.1337 30.2336 31.7916 30.656 31.7916Z" fill="#A0A0A0" stroke="#1A1A1A" stroke-width="0.3"/>
<path d="M30.656 35.4469H36.1386C36.561 35.4469 36.9024 35.789 36.9024 36.2106C36.9024 36.6323 36.561 36.9744 36.1386 36.9744H30.656C30.2336 36.9744 29.8922 36.6323 29.8922 36.2106C29.8922 35.789 30.2336 35.4469 30.656 35.4469Z" fill="#A0A0A0" stroke="#1A1A1A" stroke-width="0.3"/>
</svg>
