<svg width="52" height="44" viewBox="0 0 52 44" fill="none" xmlns="http://www.w3.org/2000/svg">
<mask id="path-1-inside-1_354_1361" fill="white">
<path fill-rule="evenodd" clip-rule="evenodd" d="M4.10254 7.92529H4.6875V17.2087C3.21021 19.5649 2.3418 22.3401 2.3418 25.3203C2.3418 33.7739 9.21973 40.6519 17.6729 40.6519H41.6631C47.2686 40.6519 51.8281 36.0918 51.8281 30.4863C51.8281 27.9855 50.9075 25.6354 49.335 23.8223V6.49854C49.335 3.28955 46.7246 0.679199 43.5156 0.679199H29.3115C28.8975 0.679199 28.5615 1.01514 28.5615 1.4292C28.5615 1.84326 28.8975 2.1792 29.3115 2.1792H43.5156C45.8975 2.1792 47.835 4.1167 47.835 6.49854V22.4354C47.1914 21.9417 46.4986 21.5026 45.7344 21.1694L45.3193 20.9823V6.49854C45.3193 5.52051 44.4932 4.69434 43.5156 4.69434H37.8115C37.3975 4.69434 37.0615 5.03027 37.0615 5.44434C37.0615 5.8584 37.3975 6.19434 37.8115 6.19434H43.5156C43.6748 6.19434 43.8193 6.33936 43.8193 6.49854V20.306L24.5684 11.6265C22.4551 10.5552 20.0703 9.98877 17.6729 9.98877C15.6756 9.98877 13.7718 10.3842 12.0204 11.0822C11.0059 10.2771 10.3534 8.86176 10.0099 7.92529H11.7539C12.957 7.92529 16.6172 7.92529 17.2822 5.44092C17.5879 4.29883 17.042 3.01025 16.0117 2.44336C15.0298 1.90312 13.8333 1.87601 12.821 1.85306L12.8193 1.85303L12.8159 1.85295C11.0123 1.81245 9.14636 1.77054 7.40625 1.05908C7.16207 0.95932 6.92898 0.847079 6.698 0.735849L6.69799 0.735844L6.67871 0.726562L6.67638 0.725443C5.98277 0.391806 5.26558 0.0468281 4.35352 0.00488281L4.14453 0C2.10742 0 0 1.4248 0 3.80957C0 6.0791 1.84082 7.92529 4.10254 7.92529ZM23.9209 12.979L44.2758 22.1557L44.279 22.1572L44.9961 22.4805L45.1172 22.5366C48.2832 23.9165 50.3281 27.0371 50.3281 30.4863C50.3281 35.2646 46.4414 39.1519 41.6631 39.1519H17.6729C10.0459 39.1519 3.8418 32.9473 3.8418 25.3203C3.8418 17.6934 10.0459 11.4888 17.6729 11.4888C19.8359 11.4888 21.9863 11.999 23.9209 12.979ZM10.5481 11.7567C8.88989 12.6314 7.41785 13.8047 6.1875 15.1993V7.92529H8.42218C8.70489 8.8092 9.36981 10.5251 10.5481 11.7567ZM4.14453 1.5L4.28418 1.50293C4.89082 1.53121 5.41661 1.78402 6.02596 2.07699L6.02832 2.07812L6.03043 2.07914C6.29342 2.20576 6.55934 2.3338 6.83789 2.44775C8.83594 3.26376 10.8428 3.30904 12.833 3.35394L12.8359 3.354C13.6758 3.37256 14.6279 3.39404 15.2891 3.75781C15.71 3.98926 15.959 4.58252 15.833 5.05322C15.5889 5.96338 14.2168 6.42529 11.7539 6.42529H4.10254C2.66797 6.42529 1.5 5.25195 1.5 3.80957C1.5 2.36377 2.84473 1.5 4.14453 1.5ZM36.0352 3.43652C36.0352 4.95703 34.7979 6.19434 33.2773 6.19434H29.3125C28.8984 6.19434 28.5625 5.8584 28.5625 5.44434C28.5625 5.03027 28.8984 4.69434 29.3125 4.69434H33.2773C33.9707 4.69434 34.5352 4.12988 34.5352 3.43652C34.5352 3.02246 34.8711 2.68652 35.2852 2.68652C35.6992 2.68652 36.0352 3.02246 36.0352 3.43652ZM20.1587 30.854C19.4198 31.177 18.6057 31.3589 17.749 31.3589C14.4199 31.3589 11.7109 28.6499 11.7109 25.3198C11.7109 21.9902 14.4199 19.2812 17.749 19.2812C21.0791 19.2812 23.7881 21.9902 23.7881 25.3198C23.7881 27.2402 22.8842 28.9502 21.4828 30.0571L25.4551 34.0293H28.8311C29.2451 34.0293 29.5811 34.3652 29.5811 34.7793C29.5811 35.1934 29.2451 35.5293 28.8311 35.5293H25.1445C24.9453 35.5293 24.7549 35.4502 24.6143 35.3096L20.1587 30.854ZM22.2881 25.3198C22.2881 22.8174 20.252 20.7812 17.749 20.7812C15.2471 20.7812 13.2109 22.8174 13.2109 25.3198C13.2109 27.8228 15.2471 29.8589 17.749 29.8589C20.252 29.8589 22.2881 27.8228 22.2881 25.3198ZM0.75 42.5059H51.0781C51.4922 42.5059 51.8281 42.8418 51.8281 43.2559C51.8281 43.6699 51.4922 44.0059 51.0781 44.0059H0.75C0.335938 44.0059 0 43.6699 0 43.2559C0 42.8418 0.335938 42.5059 0.75 42.5059Z"/>
</mask>
<path fill-rule="evenodd" clip-rule="evenodd" d="M4.10254 7.92529H4.6875V17.2087C3.21021 19.5649 2.3418 22.3401 2.3418 25.3203C2.3418 33.7739 9.21973 40.6519 17.6729 40.6519H41.6631C47.2686 40.6519 51.8281 36.0918 51.8281 30.4863C51.8281 27.9855 50.9075 25.6354 49.335 23.8223V6.49854C49.335 3.28955 46.7246 0.679199 43.5156 0.679199H29.3115C28.8975 0.679199 28.5615 1.01514 28.5615 1.4292C28.5615 1.84326 28.8975 2.1792 29.3115 2.1792H43.5156C45.8975 2.1792 47.835 4.1167 47.835 6.49854V22.4354C47.1914 21.9417 46.4986 21.5026 45.7344 21.1694L45.3193 20.9823V6.49854C45.3193 5.52051 44.4932 4.69434 43.5156 4.69434H37.8115C37.3975 4.69434 37.0615 5.03027 37.0615 5.44434C37.0615 5.8584 37.3975 6.19434 37.8115 6.19434H43.5156C43.6748 6.19434 43.8193 6.33936 43.8193 6.49854V20.306L24.5684 11.6265C22.4551 10.5552 20.0703 9.98877 17.6729 9.98877C15.6756 9.98877 13.7718 10.3842 12.0204 11.0822C11.0059 10.2771 10.3534 8.86176 10.0099 7.92529H11.7539C12.957 7.92529 16.6172 7.92529 17.2822 5.44092C17.5879 4.29883 17.042 3.01025 16.0117 2.44336C15.0298 1.90312 13.8333 1.87601 12.821 1.85306L12.8193 1.85303L12.8159 1.85295C11.0123 1.81245 9.14636 1.77054 7.40625 1.05908C7.16207 0.95932 6.92898 0.847079 6.698 0.735849L6.69799 0.735844L6.67871 0.726562L6.67638 0.725443C5.98277 0.391806 5.26558 0.0468281 4.35352 0.00488281L4.14453 0C2.10742 0 0 1.4248 0 3.80957C0 6.0791 1.84082 7.92529 4.10254 7.92529ZM23.9209 12.979L44.2758 22.1557L44.279 22.1572L44.9961 22.4805L45.1172 22.5366C48.2832 23.9165 50.3281 27.0371 50.3281 30.4863C50.3281 35.2646 46.4414 39.1519 41.6631 39.1519H17.6729C10.0459 39.1519 3.8418 32.9473 3.8418 25.3203C3.8418 17.6934 10.0459 11.4888 17.6729 11.4888C19.8359 11.4888 21.9863 11.999 23.9209 12.979ZM10.5481 11.7567C8.88989 12.6314 7.41785 13.8047 6.1875 15.1993V7.92529H8.42218C8.70489 8.8092 9.36981 10.5251 10.5481 11.7567ZM4.14453 1.5L4.28418 1.50293C4.89082 1.53121 5.41661 1.78402 6.02596 2.07699L6.02832 2.07812L6.03043 2.07914C6.29342 2.20576 6.55934 2.3338 6.83789 2.44775C8.83594 3.26376 10.8428 3.30904 12.833 3.35394L12.8359 3.354C13.6758 3.37256 14.6279 3.39404 15.2891 3.75781C15.71 3.98926 15.959 4.58252 15.833 5.05322C15.5889 5.96338 14.2168 6.42529 11.7539 6.42529H4.10254C2.66797 6.42529 1.5 5.25195 1.5 3.80957C1.5 2.36377 2.84473 1.5 4.14453 1.5ZM36.0352 3.43652C36.0352 4.95703 34.7979 6.19434 33.2773 6.19434H29.3125C28.8984 6.19434 28.5625 5.8584 28.5625 5.44434C28.5625 5.03027 28.8984 4.69434 29.3125 4.69434H33.2773C33.9707 4.69434 34.5352 4.12988 34.5352 3.43652C34.5352 3.02246 34.8711 2.68652 35.2852 2.68652C35.6992 2.68652 36.0352 3.02246 36.0352 3.43652ZM20.1587 30.854C19.4198 31.177 18.6057 31.3589 17.749 31.3589C14.4199 31.3589 11.7109 28.6499 11.7109 25.3198C11.7109 21.9902 14.4199 19.2812 17.749 19.2812C21.0791 19.2812 23.7881 21.9902 23.7881 25.3198C23.7881 27.2402 22.8842 28.9502 21.4828 30.0571L25.4551 34.0293H28.8311C29.2451 34.0293 29.5811 34.3652 29.5811 34.7793C29.5811 35.1934 29.2451 35.5293 28.8311 35.5293H25.1445C24.9453 35.5293 24.7549 35.4502 24.6143 35.3096L20.1587 30.854ZM22.2881 25.3198C22.2881 22.8174 20.252 20.7812 17.749 20.7812C15.2471 20.7812 13.2109 22.8174 13.2109 25.3198C13.2109 27.8228 15.2471 29.8589 17.749 29.8589C20.252 29.8589 22.2881 27.8228 22.2881 25.3198ZM0.75 42.5059H51.0781C51.4922 42.5059 51.8281 42.8418 51.8281 43.2559C51.8281 43.6699 51.4922 44.0059 51.0781 44.0059H0.75C0.335938 44.0059 0 43.6699 0 43.2559C0 42.8418 0.335938 42.5059 0.75 42.5059Z" fill="#A0A0A0"/>
<path d="M4.6875 7.92529H4.8875V7.72529H4.6875V7.92529ZM4.6875 17.2087L4.85695 17.3149L4.8875 17.2662V17.2087H4.6875ZM49.335 23.8223H49.135V23.8969L49.1839 23.9533L49.335 23.8223ZM47.835 22.4354L47.7132 22.5941L48.035 22.841V22.4354H47.835ZM45.7344 21.1694L45.6522 21.3518L45.6545 21.3528L45.7344 21.1694ZM45.3193 20.9823H45.1193V21.1115L45.2371 21.1646L45.3193 20.9823ZM43.8193 20.306L43.7371 20.4884L44.0193 20.6156V20.306H43.8193ZM24.5684 11.6265L24.4778 11.805L24.4862 11.8088L24.5684 11.6265ZM12.0204 11.0822L11.8961 11.2388L11.9868 11.3108L12.0944 11.2679L12.0204 11.0822ZM10.0099 7.92529V7.72529H9.72349L9.82212 7.99417L10.0099 7.92529ZM17.2822 5.44092L17.4754 5.49263L17.4754 5.49263L17.2822 5.44092ZM16.0117 2.44336L16.1081 2.26813L16.1081 2.26813L16.0117 2.44336ZM12.821 1.85306L12.8164 2.05301L12.8164 2.05301L12.821 1.85306ZM12.8193 1.85303L12.8239 1.65308L12.8238 1.65308L12.8193 1.85303ZM12.8159 1.85295L12.8114 2.0529L12.8114 2.0529L12.8159 1.85295ZM7.40625 1.05908L7.48194 0.873958L7.48189 0.873938L7.40625 1.05908ZM6.698 0.735849L6.78478 0.555635L6.78222 0.554447L6.698 0.735849ZM6.69799 0.735844L6.61121 0.91606L6.61376 0.917246L6.69799 0.735844ZM6.67871 0.726562L6.76548 0.546365L6.76541 0.546332L6.67871 0.726562ZM6.67638 0.725443L6.76308 0.545212L6.76308 0.545209L6.67638 0.725443ZM4.35352 0.00488281L4.36271 -0.194957L4.35819 -0.195063L4.35352 0.00488281ZM4.14453 0L4.1492 -0.2H4.14453V0ZM44.2758 22.1557L44.3583 21.9735L44.358 21.9734L44.2758 22.1557ZM23.9209 12.979L23.8304 13.1576L23.8387 13.1613L23.9209 12.979ZM44.279 22.1572L44.1965 22.3394L44.1968 22.3395L44.279 22.1572ZM44.9961 22.4805L45.0802 22.299L45.0783 22.2981L44.9961 22.4805ZM45.1172 22.5366L45.033 22.7181L45.0373 22.72L45.1172 22.5366ZM6.1875 15.1993H5.9875V15.7284L6.33748 15.3317L6.1875 15.1993ZM10.5481 11.7567L10.6414 11.9336L10.8758 11.81L10.6926 11.6185L10.5481 11.7567ZM6.1875 7.92529V7.72529H5.9875V7.92529H6.1875ZM8.42218 7.92529L8.61267 7.86436L8.56819 7.72529H8.42218V7.92529ZM4.28418 1.50293L4.2935 1.30308L4.28837 1.30297L4.28418 1.50293ZM4.14453 1.5L4.14873 1.3H4.14453V1.5ZM6.02596 2.07699L5.9393 2.25724L5.9393 2.25724L6.02596 2.07699ZM6.02832 2.07812L6.11507 1.89792L6.11498 1.89788L6.02832 2.07812ZM6.03043 2.07914L6.1172 1.89894L6.11718 1.89893L6.03043 2.07914ZM6.83789 2.44775L6.76216 2.63286L6.76227 2.63291L6.83789 2.44775ZM12.833 3.35394L12.8285 3.55389L12.8285 3.55389L12.833 3.35394ZM12.8359 3.354L12.8314 3.55395L12.8315 3.55396L12.8359 3.354ZM15.2891 3.75781L15.1926 3.93304L15.1927 3.93306L15.2891 3.75781ZM15.833 5.05322L16.0262 5.10504L16.0262 5.10493L15.833 5.05322ZM1.5 3.80957L1.3 3.80957V3.80957H1.5ZM20.1587 30.854L20.3001 30.7126L20.2036 30.6161L20.0786 30.6707L20.1587 30.854ZM21.4828 30.0571L21.3589 29.9001L21.1824 30.0395L21.3414 30.1985L21.4828 30.0571ZM25.4551 34.0293L25.3137 34.1707L25.3722 34.2293H25.4551V34.0293ZM4.6875 7.72529H4.10254V8.12529H4.6875V7.72529ZM4.8875 17.2087V7.92529H4.4875V17.2087H4.8875ZM2.5418 25.3203C2.5418 22.3796 3.39856 19.641 4.85695 17.3149L4.51805 17.1024C3.02185 19.4889 2.1418 22.3006 2.1418 25.3203H2.5418ZM17.6729 40.4519C9.33019 40.4519 2.5418 33.6635 2.5418 25.3203H2.1418C2.1418 33.8844 9.10927 40.8519 17.6729 40.8519V40.4519ZM41.6631 40.4519H17.6729V40.8519H41.6631V40.4519ZM51.6281 30.4863C51.6281 35.9814 47.1581 40.4519 41.6631 40.4519V40.8519C47.379 40.8519 52.0281 36.2022 52.0281 30.4863H51.6281ZM49.1839 23.9533C50.7257 25.7311 51.6281 28.035 51.6281 30.4863H52.0281C52.0281 27.936 51.0892 25.5397 49.4861 23.6912L49.1839 23.9533ZM49.135 6.49854V23.8223H49.535V6.49854H49.135ZM43.5156 0.879199C46.6142 0.879199 49.135 3.40001 49.135 6.49854H49.535C49.535 3.17909 46.8351 0.479199 43.5156 0.479199V0.879199ZM29.3115 0.879199H43.5156V0.479199H29.3115V0.879199ZM28.7615 1.4292C28.7615 1.12559 29.0079 0.879199 29.3115 0.879199V0.479199C28.787 0.479199 28.3615 0.90468 28.3615 1.4292H28.7615ZM29.3115 1.9792C29.0079 1.9792 28.7615 1.7328 28.7615 1.4292H28.3615C28.3615 1.95372 28.787 2.3792 29.3115 2.3792V1.9792ZM43.5156 1.9792H29.3115V2.3792H43.5156V1.9792ZM48.035 6.49854C48.035 4.00624 46.0079 1.9792 43.5156 1.9792V2.3792C45.787 2.3792 47.635 4.22716 47.635 6.49854H48.035ZM48.035 22.4354V6.49854H47.635V22.4354H48.035ZM45.6545 21.3528C46.4003 21.6779 47.0791 22.1076 47.7132 22.5941L47.9567 22.2767C47.3037 21.7757 46.5969 21.3273 45.8143 20.9861L45.6545 21.3528ZM45.2371 21.1646L45.6522 21.3518L45.8166 20.9871L45.4015 20.8L45.2371 21.1646ZM45.1193 6.49854V20.9823H45.5193V6.49854H45.1193ZM43.5156 4.89434C44.3827 4.89434 45.1193 5.63093 45.1193 6.49854H45.5193C45.5193 5.41009 44.6037 4.49434 43.5156 4.49434V4.89434ZM37.8115 4.89434H43.5156V4.49434H37.8115V4.89434ZM37.2615 5.44434C37.2615 5.14073 37.5079 4.89434 37.8115 4.89434V4.49434C37.287 4.49434 36.8615 4.91982 36.8615 5.44434H37.2615ZM37.8115 5.99434C37.5079 5.99434 37.2615 5.74794 37.2615 5.44434H36.8615C36.8615 5.96886 37.287 6.39434 37.8115 6.39434V5.99434ZM43.5156 5.99434H37.8115V6.39434H43.5156V5.99434ZM44.0193 6.49854C44.0193 6.22931 43.7857 5.99434 43.5156 5.99434V6.39434C43.5639 6.39434 43.6193 6.4494 43.6193 6.49854H44.0193ZM44.0193 20.306V6.49854H43.6193V20.306H44.0193ZM24.4862 11.8088L43.7371 20.4884L43.9015 20.1237L24.6506 11.4441L24.4862 11.8088ZM17.6729 10.1888C20.0393 10.1888 22.393 10.7479 24.4779 11.8049L24.6588 11.4481C22.5171 10.3624 20.1013 9.78877 17.6729 9.78877V10.1888ZM12.0944 11.2679C13.8236 10.5788 15.7023 10.1888 17.6729 10.1888V9.78877C15.6489 9.78877 13.7201 10.1895 11.9463 10.8964L12.0944 11.2679ZM9.82212 7.99417C10.1673 8.93515 10.8351 10.3969 11.8961 11.2388L12.1447 10.9255C11.1766 10.1573 10.5395 8.78836 10.1977 7.85642L9.82212 7.99417ZM11.7539 7.72529H10.0099V8.12529H11.7539V7.72529ZM17.089 5.3892C16.7842 6.5278 15.7911 7.11793 14.6676 7.42168C13.5479 7.72445 12.3568 7.72529 11.7539 7.72529V8.12529C12.3541 8.12529 13.5947 8.12614 14.772 7.80781C15.9457 7.49047 17.1152 6.83842 17.4754 5.49263L17.089 5.3892ZM15.9153 2.61859C16.8643 3.14074 17.3711 4.33527 17.089 5.38921L17.4754 5.49263C17.8047 4.26238 17.2197 2.87977 16.1081 2.26813L15.9153 2.61859ZM12.8164 2.05301C13.8388 2.07618 14.9837 2.10602 15.9153 2.61859L16.1081 2.26813C15.0759 1.70022 13.8279 1.67583 12.8255 1.65312L12.8164 2.05301ZM12.8148 2.05298L12.8164 2.05301L12.8255 1.65312L12.8239 1.65308L12.8148 2.05298ZM12.8114 2.0529L12.8149 2.05298L12.8238 1.65308L12.8204 1.653L12.8114 2.0529ZM7.33056 1.24421C9.11048 1.97195 11.014 2.01254 12.8114 2.0529L12.8204 1.653C11.0105 1.61236 9.18224 1.56914 7.48194 0.873958L7.33056 1.24421ZM6.61122 0.916045C6.84139 1.02688 7.07988 1.14179 7.33061 1.24423L7.48189 0.873938C7.24426 0.776852 7.01658 0.66728 6.78477 0.555653L6.61122 0.916045ZM6.61376 0.917246L6.61377 0.917251L6.78222 0.554447L6.78221 0.554442L6.61376 0.917246ZM6.59194 0.90676L6.61122 0.916042L6.78476 0.555646L6.76548 0.546365L6.59194 0.90676ZM6.58968 0.905673L6.59201 0.906793L6.76541 0.546332L6.76308 0.545212L6.58968 0.905673ZM4.34433 0.204672C5.21047 0.244505 5.89343 0.570768 6.58969 0.905676L6.76308 0.545209C6.07211 0.212844 5.32069 -0.150849 4.3627 -0.194906L4.34433 0.204672ZM4.13986 0.199945L4.34884 0.204828L4.35819 -0.195063L4.1492 -0.199945L4.13986 0.199945ZM0.2 3.80957C0.2 1.56707 2.18313 0.2 4.14453 0.2V-0.2C2.03172 -0.2 -0.2 1.28254 -0.2 3.80957H0.2ZM4.10254 7.72529C1.95186 7.72529 0.2 5.96923 0.2 3.80957H-0.2C-0.2 6.18897 1.72978 8.12529 4.10254 8.12529V7.72529ZM44.358 21.9734L24.0031 12.7967L23.8387 13.1613L44.1936 22.338L44.358 21.9734ZM44.3615 21.975L44.3583 21.9735L44.1933 22.3379L44.1965 22.3394L44.3615 21.975ZM45.0783 22.2981L44.3612 21.9748L44.1968 22.3395L44.9139 22.6628L45.0783 22.2981ZM45.2013 22.3552L45.0802 22.299L44.912 22.6619L45.0331 22.7181L45.2013 22.3552ZM50.5281 30.4863C50.5281 26.9575 48.436 23.7649 45.1971 22.3533L45.0373 22.72C48.1304 24.0681 50.1281 27.1168 50.1281 30.4863H50.5281ZM41.6631 39.3519C46.5519 39.3519 50.5281 35.3751 50.5281 30.4863H50.1281C50.1281 35.1542 46.3309 38.9519 41.6631 38.9519V39.3519ZM17.6729 39.3519H41.6631V38.9519H17.6729V39.3519ZM3.6418 25.3203C3.6418 33.0577 9.93543 39.3519 17.6729 39.3519V38.9519C10.1564 38.9519 4.0418 32.8368 4.0418 25.3203H3.6418ZM17.6729 11.2888C9.93543 11.2888 3.6418 17.5829 3.6418 25.3203H4.0418C4.0418 17.8038 10.1564 11.6888 17.6729 11.6888V11.2888ZM24.0113 12.8006C22.0485 11.8063 19.8672 11.2888 17.6729 11.2888V11.6888C19.8047 11.6888 21.9241 12.1917 23.8305 13.1574L24.0113 12.8006ZM6.33748 15.3317C7.5523 13.9547 9.00531 12.7966 10.6414 11.9336L10.4548 11.5798C8.77447 12.4662 7.28339 13.6548 6.03752 15.067L6.33748 15.3317ZM5.9875 7.92529V15.1993H6.3875V7.92529H5.9875ZM8.42218 7.72529H6.1875V8.12529H8.42218V7.72529ZM10.6926 11.6185C9.54659 10.4206 8.89288 8.74044 8.61267 7.86436L8.23169 7.98622C8.51691 8.87797 9.19303 10.6297 10.4036 11.895L10.6926 11.6185ZM4.28837 1.30297L4.14873 1.30004L4.14034 1.69996L4.27998 1.70289L4.28837 1.30297ZM6.11262 1.89674C5.51041 1.6072 4.94774 1.33365 4.29349 1.30315L4.27487 1.70271C4.8339 1.72878 5.32282 1.96084 5.9393 2.25724L6.11262 1.89674ZM6.11498 1.89788L6.11262 1.89674L5.9393 2.25724L5.94166 2.25837L6.11498 1.89788ZM6.11718 1.89893L6.11507 1.89792L5.94157 2.25833L5.94369 2.25935L6.11718 1.89893ZM6.91362 2.26264C6.64156 2.15135 6.38099 2.02596 6.1172 1.89894L5.94367 2.25934C6.20584 2.38557 6.47712 2.51625 6.76216 2.63286L6.91362 2.26264ZM12.8375 3.15399C10.8427 3.10899 8.87232 3.06258 6.91351 2.2626L6.76227 2.63291C8.79957 3.46495 10.8429 3.50909 12.8285 3.55389L12.8375 3.15399ZM12.8404 3.15405L12.8375 3.15399L12.8285 3.55389L12.8314 3.55395L12.8404 3.15405ZM15.3855 3.58259C15.023 3.38314 14.591 3.28254 14.1543 3.22799C13.7168 3.17335 13.2584 3.16329 12.8404 3.15405L12.8315 3.55396C13.2533 3.56327 13.6909 3.57323 14.1047 3.62491C14.5193 3.67669 14.894 3.76871 15.1926 3.93304L15.3855 3.58259ZM16.0262 5.10493C16.1027 4.81919 16.0635 4.50748 15.9505 4.23837C15.8376 3.96942 15.643 3.72419 15.3854 3.58256L15.1927 3.93306C15.356 4.02288 15.4964 4.19 15.5817 4.39322C15.667 4.59628 15.6893 4.81656 15.6398 5.00152L16.0262 5.10493ZM11.7539 6.62529C12.994 6.62529 13.9778 6.50949 14.6893 6.27013C15.3987 6.03143 15.8789 5.65403 16.0262 5.10504L15.6398 5.00141C15.543 5.36257 15.215 5.67121 14.5617 5.89101C13.9104 6.11014 12.9767 6.22529 11.7539 6.22529V6.62529ZM4.10254 6.62529H11.7539V6.22529H4.10254V6.62529ZM1.3 3.80957C1.3 5.36148 2.55659 6.62529 4.10254 6.62529V6.22529C2.77935 6.22529 1.7 5.14242 1.7 3.80957H1.3ZM4.14453 1.3C2.77938 1.3 1.3 2.21305 1.3 3.80957L1.7 3.80957C1.7 2.51449 2.91008 1.7 4.14453 1.7V1.3ZM33.2773 6.39434C34.9083 6.39434 36.2352 5.06749 36.2352 3.43652H35.8352C35.8352 4.84657 34.6874 5.99434 33.2773 5.99434V6.39434ZM29.3125 6.39434H33.2773V5.99434H29.3125V6.39434ZM28.3625 5.44434C28.3625 5.96886 28.788 6.39434 29.3125 6.39434V5.99434C29.0089 5.99434 28.7625 5.74794 28.7625 5.44434H28.3625ZM29.3125 4.49434C28.788 4.49434 28.3625 4.91982 28.3625 5.44434H28.7625C28.7625 5.14073 29.0089 4.89434 29.3125 4.89434V4.49434ZM33.2773 4.49434H29.3125V4.89434H33.2773V4.49434ZM34.3352 3.43652C34.3352 4.01943 33.8602 4.49434 33.2773 4.49434V4.89434C34.0812 4.89434 34.7352 4.24034 34.7352 3.43652H34.3352ZM35.2852 2.48652C34.7606 2.48652 34.3352 2.912 34.3352 3.43652H34.7352C34.7352 3.13292 34.9816 2.88652 35.2852 2.88652V2.48652ZM36.2352 3.43652C36.2352 2.912 35.8097 2.48652 35.2852 2.48652V2.88652C35.5888 2.88652 35.8352 3.13292 35.8352 3.43652H36.2352ZM17.749 31.5589C18.6343 31.5589 19.4756 31.3709 20.2388 31.0373L20.0786 30.6707C19.364 30.9831 18.577 31.1589 17.749 31.1589V31.5589ZM11.5109 25.3198C11.5109 28.7603 14.3094 31.5589 17.749 31.5589V31.1589C14.5304 31.1589 11.9109 28.5395 11.9109 25.3198H11.5109ZM17.749 19.0812C14.3095 19.0812 11.5109 21.8798 11.5109 25.3198H11.9109C11.9109 22.1007 14.5304 19.4813 17.749 19.4813V19.0812ZM23.9881 25.3198C23.9881 21.8798 21.1895 19.0812 17.749 19.0812V19.4813C20.9687 19.4813 23.5881 22.1007 23.5881 25.3198H23.9881ZM21.6068 30.214C23.0537 29.0712 23.9881 27.3045 23.9881 25.3198H23.5881C23.5881 27.1758 22.7147 28.8292 21.3589 29.9001L21.6068 30.214ZM25.5965 33.8879L21.6243 29.9156L21.3414 30.1985L25.3137 34.1707L25.5965 33.8879ZM28.8311 33.8293H25.4551V34.2293H28.8311V33.8293ZM29.7811 34.7793C29.7811 34.2548 29.3556 33.8293 28.8311 33.8293V34.2293C29.1347 34.2293 29.3811 34.4757 29.3811 34.7793H29.7811ZM28.8311 35.7293C29.3556 35.7293 29.7811 35.3038 29.7811 34.7793H29.3811C29.3811 35.0829 29.1347 35.3293 28.8311 35.3293V35.7293ZM25.1445 35.7293H28.8311V35.3293H25.1445V35.7293ZM24.4728 35.451C24.6509 35.6291 24.8922 35.7293 25.1445 35.7293V35.3293C24.9985 35.3293 24.8589 35.2713 24.7557 35.1681L24.4728 35.451ZM20.0173 30.9954L24.4728 35.451L24.7557 35.1681L20.3001 30.7126L20.0173 30.9954ZM17.749 20.9813C20.1415 20.9813 22.0881 22.9279 22.0881 25.3198H22.4881C22.4881 22.7069 20.3624 20.5812 17.749 20.5812V20.9813ZM13.4109 25.3198C13.4109 22.9278 15.3575 20.9813 17.749 20.9813V20.5812C15.1366 20.5812 13.0109 22.7069 13.0109 25.3198H13.4109ZM17.749 29.6589C15.3576 29.6589 13.4109 27.7123 13.4109 25.3198H13.0109C13.0109 27.9332 15.1366 30.0589 17.749 30.0589V29.6589ZM22.0881 25.3198C22.0881 27.7123 20.1415 29.6589 17.749 29.6589V30.0589C20.3624 30.0589 22.4881 27.9332 22.4881 25.3198H22.0881ZM51.0781 42.3059H0.75V42.7059H51.0781V42.3059ZM52.0281 43.2559C52.0281 42.7313 51.6026 42.3059 51.0781 42.3059V42.7059C51.3817 42.7059 51.6281 42.9523 51.6281 43.2559H52.0281ZM51.0781 44.2059C51.6026 44.2059 52.0281 43.7804 52.0281 43.2559H51.6281C51.6281 43.5595 51.3817 43.8059 51.0781 43.8059V44.2059ZM0.75 44.2059H51.0781V43.8059H0.75V44.2059ZM-0.2 43.2559C-0.2 43.7804 0.225481 44.2059 0.75 44.2059V43.8059C0.446394 43.8059 0.2 43.5595 0.2 43.2559H-0.2ZM0.75 42.3059C0.225481 42.3059 -0.2 42.7313 -0.2 43.2559H0.2C0.2 42.9523 0.446394 42.7059 0.75 42.7059V42.3059Z" fill="#1A1A1A" mask="url(#path-1-inside-1_354_1361)"/>
</svg>
