<svg width="49" height="49" viewBox="0 0 49 49" fill="none" xmlns="http://www.w3.org/2000/svg">
<rect x="0.691406" y="0.125" width="48.2498" height="48.75" rx="24.1249" fill="#121212"/>
<path d="M24.8173 13.25C21.8299 13.25 21.455 13.2634 20.2817 13.318C19.1106 13.3728 18.3113 13.5624 17.6119 13.8406C16.8884 14.128 16.2747 14.5123 15.6633 15.1379C15.0514 15.7632 14.6756 16.3909 14.3937 17.1305C14.121 17.8461 13.9353 18.6638 13.8826 19.861C13.8302 21.061 13.8164 21.4447 13.8164 24.5C13.8164 27.5553 13.8297 27.9376 13.8829 29.1376C13.9367 30.3352 14.1221 31.1527 14.3939 31.868C14.6751 32.608 15.0509 33.2356 15.6626 33.8609C16.2738 34.4867 16.8875 34.872 17.6105 35.1594C18.3104 35.4376 19.1099 35.6272 20.2807 35.682C21.4541 35.7366 21.8288 35.75 24.8159 35.75C27.8036 35.75 28.1774 35.7366 29.3507 35.682C30.5217 35.6272 31.322 35.4376 32.0219 35.1594C32.7451 34.872 33.3579 34.4867 33.9691 33.8609C34.581 33.2356 34.9568 32.608 35.2387 31.8683C35.5091 31.1527 35.6947 30.335 35.7497 29.1378C35.8024 27.9378 35.8162 27.5553 35.8162 24.5C35.8162 21.4447 35.8024 21.0613 35.7497 19.8612C35.6947 18.6636 35.5091 17.8461 35.2387 17.1308C34.9568 16.3909 34.581 15.7632 33.9691 15.1379C33.3572 14.5121 32.7453 14.1277 32.0212 13.8406C31.3199 13.5624 30.5201 13.3728 29.3491 13.318C28.1758 13.2634 27.8022 13.25 24.8139 13.25H24.8173ZM23.8305 15.2773C24.1234 15.2769 24.4502 15.2773 24.8173 15.2773C27.7543 15.2773 28.1024 15.2881 29.2622 15.342C30.3347 15.3922 30.9168 15.5755 31.3046 15.7295C31.8179 15.9334 32.1839 16.1771 32.5687 16.5709C32.9537 16.9646 33.192 17.3396 33.3918 17.8646C33.5424 18.2607 33.7218 18.856 33.7706 19.9529C33.8233 21.1388 33.8348 21.4951 33.8348 24.4974C33.8348 27.4998 33.8233 27.856 33.7706 29.042C33.7216 30.1388 33.5424 30.7341 33.3918 31.1302C33.1924 31.6552 32.9537 32.0291 32.5687 32.4226C32.1837 32.8163 31.8181 33.0601 31.3046 33.264C30.9173 33.4187 30.3347 33.6015 29.2622 33.6516C28.1027 33.7055 27.7543 33.7173 24.8173 33.7173C21.8801 33.7173 21.532 33.7055 20.3724 33.6516C19.2999 33.601 18.7178 33.4177 18.3298 33.2638C17.8165 33.0598 17.4498 32.8161 17.0648 32.4223C16.6798 32.0286 16.4415 31.6545 16.2417 31.1293C16.0911 30.7332 15.9117 30.1379 15.8629 29.041C15.8102 27.8551 15.7996 27.4988 15.7996 24.4946C15.7996 21.4904 15.8102 21.136 15.8629 19.9501C15.9119 18.8532 16.0911 18.2579 16.2417 17.8613C16.4411 17.3363 16.6798 16.9613 17.0648 16.5676C17.4498 16.1738 17.8165 15.9301 18.3298 15.7257C18.7176 15.571 19.2999 15.3882 20.3724 15.3378C21.3872 15.2909 21.7804 15.2769 23.8305 15.2745V15.2773ZM30.689 17.1453C29.9603 17.1453 29.369 17.7493 29.369 18.4948C29.369 19.2402 29.9603 19.8448 30.689 19.8448C31.4178 19.8448 32.009 19.2402 32.009 18.4948C32.009 17.7495 31.4178 17.1448 30.689 17.1448V17.1453ZM24.8173 18.7227C21.6977 18.7227 19.1684 21.3095 19.1684 24.5C19.1684 27.6905 21.6977 30.2762 24.8173 30.2762C27.937 30.2762 30.4654 27.6905 30.4654 24.5C30.4654 21.3095 27.9367 18.7227 24.8171 18.7227H24.8173ZM24.8173 20.75C26.8422 20.75 28.484 22.4288 28.484 24.5C28.484 26.5709 26.8422 28.25 24.8173 28.25C22.7922 28.25 21.1507 26.5709 21.1507 24.5C21.1507 22.4288 22.7922 20.75 24.8173 20.75Z" fill="#E91D24"/>
</svg>
