<svg width="45" height="45" viewBox="0 0 45 45" fill="none" xmlns="http://www.w3.org/2000/svg">
<path d="M23.3095 18.7084V18.6084H23.2095H4.04836C2.81912 18.6084 1.81934 19.6082 1.81934 20.8374V41.0253C1.81934 42.2545 2.81912 43.2543 4.04836 43.2543H40.9513C42.1805 43.2543 43.1803 42.2545 43.1803 41.0253V32.0844C43.1803 31.7477 43.453 31.4747 43.79 31.4747C44.127 31.4747 44.3997 31.7477 44.3997 32.0844V41.0253C44.3997 42.9265 42.8525 44.4737 40.9513 44.4737H4.04836C2.14714 44.4737 0.6 42.9265 0.6 41.0253V20.8374C0.6 18.9362 2.14714 17.3891 4.04836 17.3891H40.9513C42.8525 17.3891 44.3997 18.9362 44.3997 20.8374V28.0824C44.3997 28.4192 44.127 28.6921 43.79 28.6921C43.453 28.6921 43.1803 28.4192 43.1803 28.0824V20.8374C43.1803 19.6082 42.1805 18.6084 40.9513 18.6084H40.8513V18.7084V28.5364C40.8513 30.8292 38.986 32.6944 36.6933 32.6944H27.4675C25.1747 32.6944 23.3095 30.8292 23.3095 28.5364V18.7084ZM24.6288 18.6084H24.5288V18.7084V28.5364C24.5288 30.1568 25.8467 31.4751 27.4675 31.4751H36.6933C38.3141 31.4751 39.6319 30.1568 39.6319 28.5364V18.7084V18.6084H39.5319H24.6288Z" fill="#A0A0A0" stroke="black" stroke-width="0.2"/>
<path d="M23.3109 37.9736C23.3109 36.3465 24.6349 35.0229 26.2617 35.0229H37.902C39.5288 35.0229 40.8527 36.3465 40.8527 37.9736C40.8527 39.6007 39.5287 40.9247 37.902 40.9247H26.2617C24.6349 40.9247 23.3109 39.6007 23.3109 37.9736ZM37.902 39.7054C38.8568 39.7054 39.6334 38.9287 39.6334 37.9736C39.6334 37.0188 38.8568 36.2422 37.902 36.2422H26.2617C25.3069 36.2422 24.5303 37.0188 24.5303 37.9736C24.5303 38.9287 25.3069 39.7054 26.2617 39.7054H37.902Z" fill="#A0A0A0" stroke="black" stroke-width="0.2"/>
<path d="M36.692 28.6362H36.792V28.5362V20.8376C36.792 20.5009 37.0646 20.2279 37.4016 20.2279C37.7386 20.2279 38.0113 20.5009 38.0113 20.8376V28.5362C38.0113 29.2638 37.4192 29.8556 36.692 29.8556H27.4662C26.739 29.8556 26.1469 29.2638 26.1469 28.5362V20.8376C26.1469 20.5009 26.4195 20.2279 26.7565 20.2279C27.0935 20.2279 27.3662 20.5009 27.3662 20.8376V28.5362V28.6362H27.4662H36.692Z" fill="#A0A0A0" stroke="black" stroke-width="0.2"/>
<path d="M5.46622 22.1563H5.36622V22.2563V27.3491C5.36622 27.6858 5.09354 27.9587 4.75655 27.9587C4.41955 27.9587 4.14688 27.6858 4.14688 27.3491V21.5466C4.14688 21.2099 4.41955 20.9369 4.75655 20.9369H20.3693C20.7063 20.9369 20.979 21.2099 20.979 21.5466V40.3148C20.979 40.6515 20.7063 40.9244 20.3693 40.9244H4.75655C4.41955 40.9244 4.14688 40.6515 4.14688 40.3148V30.9307C4.14688 30.594 4.41955 30.321 4.75655 30.321C5.09354 30.321 5.36622 30.594 5.36622 30.9307V39.6051V39.7051H5.46622H19.6597H19.7597V39.6051V22.2563V22.1563H19.6597H5.46622Z" fill="#A0A0A0" stroke="black" stroke-width="0.2"/>
<path d="M16.8221 36.8672H16.9221V36.7672V34.9234C16.9221 33.6941 15.9223 32.6943 14.6931 32.6943H10.4351C9.20584 32.6943 8.20606 33.6941 8.20606 34.9234V36.7672V36.8672H8.30606H16.8221ZM6.98672 37.4769V34.9234C6.98672 33.0221 8.53385 31.475 10.4351 31.475H14.6931C16.5943 31.475 18.1415 33.0221 18.1415 34.9234V37.4769C18.1415 37.8136 17.8688 38.0865 17.5318 38.0865H7.59639C7.25939 38.0865 6.98672 37.8136 6.98672 37.4769Z" fill="#A0A0A0" stroke="black" stroke-width="0.2"/>
<path d="M15.4477 27.3491C15.4477 28.9384 14.1542 30.2319 12.5649 30.2319C10.9755 30.2319 9.68203 28.9384 9.68203 27.3491C9.68203 25.7597 10.9755 24.4662 12.5649 24.4662C14.1542 24.4662 15.4477 25.7597 15.4477 27.3491ZM14.2284 27.3491C14.2284 26.4317 13.4822 25.6856 12.5649 25.6856C11.6475 25.6856 10.9014 26.4317 10.9014 27.3491C10.9014 28.2664 11.6475 29.0126 12.5649 29.0126C13.4822 29.0126 14.2284 28.2664 14.2284 27.3491Z" fill="#A0A0A0" stroke="black" stroke-width="0.2"/>
<path d="M15.6173 4.73941L15.6173 4.73942C15.3791 4.97759 14.9934 4.97758 14.7552 4.73942C14.517 4.50126 14.517 4.11549 14.7552 3.87732L14.7552 3.87732C16.821 1.81112 19.5719 0.673242 22.502 0.673242C25.432 0.673242 28.1829 1.81112 30.2487 3.87732L30.2487 3.87732C30.4869 4.11548 30.4869 4.50125 30.2487 4.73942C30.1296 4.85853 29.9738 4.91804 29.8177 4.91804C29.6616 4.91804 29.5057 4.85853 29.3866 4.73942L29.3866 4.73941C27.5507 2.90382 25.1058 1.89259 22.502 1.89259C19.8981 1.89259 17.4533 2.90381 15.6173 4.73941Z" fill="#A0A0A0" stroke="black" stroke-width="0.2"/>
<path d="M18.0743 7.19735L18.145 7.26806L18.0743 7.19735C17.8362 7.43551 17.4504 7.43551 17.2122 7.19735C16.9741 6.95919 16.9741 6.57342 17.2122 6.33525C18.6231 4.92432 20.5008 4.14785 22.5015 4.14785C24.5022 4.14785 26.3798 4.92432 27.7907 6.33525C28.0289 6.57341 28.0289 6.95918 27.7907 7.19735C27.6716 7.31646 27.5158 7.37597 27.3597 7.37597C27.2035 7.37597 27.0477 7.31646 26.9286 7.19735C24.4875 4.75622 20.5154 4.75622 18.0743 7.19735Z" fill="#A0A0A0" stroke="black" stroke-width="0.2"/>
<path d="M22.5026 15.6285C20.2951 15.6285 18.4984 13.8322 18.4984 11.6243C18.4984 9.41681 20.2951 7.62051 22.5026 7.62051C24.7102 7.62051 26.5068 9.4168 26.5068 11.6243C26.5068 13.8322 24.7102 15.6285 22.5026 15.6285ZM22.5026 14.4092C24.0382 14.4092 25.2874 13.1599 25.2874 11.6243C25.2874 10.0888 24.0382 8.83985 22.5026 8.83985C20.9671 8.83985 19.7178 10.0888 19.7178 11.6243C19.7178 13.1599 20.9671 14.4092 22.5026 14.4092Z" fill="#A0A0A0" stroke="black" stroke-width="0.2"/>
</svg>
