<svg width="50" height="49" viewBox="0 0 50 49" fill="none" xmlns="http://www.w3.org/2000/svg">
<rect x="0.556641" y="0.125" width="48.75" height="48.75" rx="24.375" fill="#121212"/>
<g clip-path="url(#clip0_1367_17638)">
<path d="M34.5161 13.25H15.3428C14.4243 13.25 13.6816 13.9751 13.6816 14.8716V34.124C13.6816 35.0205 14.4243 35.75 15.3428 35.75H34.5161C35.4346 35.75 36.1816 35.0205 36.1816 34.1284V14.8716C36.1816 13.9751 35.4346 13.25 34.5161 13.25ZM20.3569 32.4233H17.0171V21.6831H20.3569V32.4233ZM18.687 20.2197C17.6147 20.2197 16.749 19.354 16.749 18.2861C16.749 17.2183 17.6147 16.3525 18.687 16.3525C19.7549 16.3525 20.6206 17.2183 20.6206 18.2861C20.6206 19.3496 19.7549 20.2197 18.687 20.2197ZM32.855 32.4233H29.5195V27.2026C29.5195 25.959 29.4976 24.355 27.7837 24.355C26.0479 24.355 25.7842 25.7129 25.7842 27.1147V32.4233H22.4531V21.6831H25.6523V23.1509H25.6963C26.1401 22.3071 27.23 21.415 28.8516 21.415C32.231 21.415 32.855 23.6387 32.855 26.5303V32.4233Z" fill="#E91D24"/>
</g>
<defs>
<clipPath id="clip0_1367_17638">
<rect width="22.5" height="22.5" fill="white" transform="translate(13.6816 13.25)"/>
</clipPath>
</defs>
</svg>
