<svg width="24" height="25" viewBox="0 0 24 25" fill="none" xmlns="http://www.w3.org/2000/svg">
<path d="M22.057 11.4283L18.4677 15.0176C17.8517 15.6336 17.1204 16.1223 16.3156 16.4557C15.5107 16.7891 14.648 16.9607 13.7768 16.9607C12.9057 16.9607 12.043 16.7891 11.2381 16.4557C10.4333 16.1223 9.70196 15.6336 9.08597 15.0176C8.9341 14.8911 8.81026 14.7345 8.72234 14.5575C8.63443 14.3806 8.58437 14.1872 8.57536 13.9898C8.56635 13.7925 8.59859 13.5954 8.67002 13.4111C8.74145 13.2269 8.8505 13.0596 8.99022 12.9199C9.12994 12.7802 9.29725 12.6711 9.48147 12.5997C9.6657 12.5283 9.86279 12.496 10.0602 12.505C10.2576 12.514 10.4509 12.5641 10.6278 12.652C10.8048 12.7399 10.9615 12.8638 11.0879 13.0156C11.802 13.7224 12.7662 14.1188 13.7709 14.1188C14.7757 14.1188 15.7398 13.7224 16.454 13.0156L20.0432 9.42639C20.7548 8.71481 21.1546 7.74969 21.1546 6.74335C21.1546 5.73701 20.7548 4.77189 20.0432 4.06031C19.3316 3.34872 18.3665 2.94895 17.3602 2.94895C16.3538 2.94895 15.3887 3.34872 14.6771 4.06031L13.5399 5.20934C13.2729 5.47638 12.9107 5.6264 12.5331 5.6264C12.1554 5.6264 11.7932 5.47638 11.5262 5.20934C11.2591 4.9423 11.1091 4.58011 11.1091 4.20246C11.1091 3.8248 11.2591 3.46261 11.5262 3.19557L12.6752 2.04654C13.9193 0.802443 15.6067 0.103516 17.3661 0.103516C19.1255 0.103516 20.8129 0.802443 22.057 2.04654C23.3011 3.29064 24 4.978 24 6.73743C24 8.49685 23.3011 10.1842 22.057 11.4283ZM10.4601 18.9977L9.32288 20.1467C8.61129 20.8583 7.64617 21.2581 6.63983 21.2581C5.6335 21.2581 4.66838 20.8583 3.95679 20.1467C3.2452 19.4351 2.84544 18.47 2.84544 17.4637C2.84544 16.4573 3.2452 15.4922 3.95679 14.7806L7.54603 11.1914C8.26017 10.4847 9.22433 10.0882 10.2291 10.0882C11.2338 10.0882 12.198 10.4847 12.9121 11.1914C13.1846 11.4182 13.5321 11.535 13.8863 11.5189C14.2405 11.5027 14.5759 11.3547 14.8266 11.104C15.0774 10.8533 15.2253 10.5179 15.2415 10.1637C15.2577 9.80947 15.1409 9.46201 14.914 9.18948C14.2988 8.57201 13.5678 8.08208 12.7628 7.74778C11.9578 7.41348 11.0948 7.24139 10.2231 7.24139C9.35152 7.24139 8.48847 7.41348 7.68349 7.74778C6.87852 8.08208 6.14746 8.57201 5.53227 9.18948L1.94303 12.7787C0.698928 14.0228 0 15.7102 0 17.4696C0 19.229 0.698928 20.9164 1.94303 22.1605C3.18713 23.4046 4.87449 24.1035 6.63391 24.1035C8.39334 24.1035 10.0807 23.4046 11.3248 22.1605L12.4738 21.0115C12.7409 20.7444 12.8909 20.3822 12.8909 20.0046C12.8909 19.6269 12.7409 19.2647 12.4738 18.9977C12.2068 18.7307 11.8446 18.5806 11.4669 18.5806C11.0893 18.5806 10.7271 18.7307 10.4601 18.9977Z" fill="#A8A8A8"/>
</svg>
