<svg width="25" height="25" viewBox="0 0 25 25" fill="none" xmlns="http://www.w3.org/2000/svg">
<path d="M22.4422 0.0742188H1.99062C1.01094 0.0742188 0.21875 0.847656 0.21875 1.80391V22.3398C0.21875 23.2961 1.01094 24.0742 1.99062 24.0742H22.4422C23.4219 24.0742 24.2188 23.2961 24.2188 22.3445V1.80391C24.2188 0.847656 23.4219 0.0742188 22.4422 0.0742188ZM7.33906 20.5258H3.77656V9.06953H7.33906V20.5258ZM5.55781 7.50859C4.41406 7.50859 3.49063 6.58516 3.49063 5.44609C3.49063 4.30703 4.41406 3.38359 5.55781 3.38359C6.69688 3.38359 7.62031 4.30703 7.62031 5.44609C7.62031 6.58047 6.69688 7.50859 5.55781 7.50859ZM20.6703 20.5258H17.1125V14.957C17.1125 13.6305 17.0891 11.9195 15.2609 11.9195C13.4094 11.9195 13.1281 13.368 13.1281 14.8633V20.5258H9.575V9.06953H12.9875V10.6352H13.0344C13.5078 9.73516 14.6703 8.78359 16.4 8.78359C20.0047 8.78359 20.6703 11.1555 20.6703 14.2398V20.5258Z" fill="#A8A8A8"/>
</svg>
