<svg width="78" height="78" viewBox="0 0 78 78" fill="none" xmlns="http://www.w3.org/2000/svg">
<path d="M24.5 34.4726V46.731C24.5 49.098 26.4188 51.0167 28.7857 51.0167H50.2143C52.5812 51.0167 54.5 49.098 54.5 46.731V34.4726L41.7461 42.3211C40.3687 43.1688 38.6313 43.1688 37.2539 42.3211L24.5 34.4726Z" fill="#E91D24"/>
<path d="M54.5 31.9565V31.731C54.5 29.3641 52.5812 27.4453 50.2143 27.4453H28.7857C26.4188 27.4453 24.5 29.3641 24.5 31.731V31.9565L38.3769 40.4961C39.0657 40.92 39.9343 40.92 40.6231 40.4961L54.5 31.9565Z" fill="#E91D24"/>
<circle cx="39" cy="38.9453" r="38" stroke="url(#paint0_linear_942_4722)" stroke-opacity="0.5"/>
<circle cx="39" cy="38.9453" r="38" stroke="url(#paint1_linear_942_4722)" stroke-opacity="0.5"/>
<circle cx="39" cy="38.9453" r="27" transform="rotate(-90 39 38.9453)" stroke="url(#paint2_linear_942_4722)" stroke-opacity="0.5"/>
<circle cx="39" cy="38.9453" r="27" transform="rotate(-90 39 38.9453)" stroke="url(#paint3_linear_942_4722)" stroke-opacity="0.5"/>
<defs>
<linearGradient id="paint0_linear_942_4722" x1="39.5" y1="11.4453" x2="39.5" y2="38.4453" gradientUnits="userSpaceOnUse">
<stop stop-color="#FF8084"/>
<stop offset="0.504977" stop-color="#5B5B5B" stop-opacity="0"/>
</linearGradient>
<linearGradient id="paint1_linear_942_4722" x1="39.5" y1="64.9453" x2="39.5" y2="38.4453" gradientUnits="userSpaceOnUse">
<stop stop-color="#FF8084"/>
<stop offset="0.498156" stop-color="#5B5B5B" stop-opacity="0"/>
</linearGradient>
<linearGradient id="paint2_linear_942_4722" x1="39.3571" y1="22.9453" x2="39.3571" y2="38.5882" gradientUnits="userSpaceOnUse">
<stop stop-color="#FF8084"/>
<stop offset="0.504977" stop-color="#5B5B5B" stop-opacity="0"/>
</linearGradient>
<linearGradient id="paint3_linear_942_4722" x1="39.5" y1="57.9453" x2="39.3571" y2="38.5882" gradientUnits="userSpaceOnUse">
<stop stop-color="#FF8084"/>
<stop offset="0.498156" stop-color="#5B5B5B" stop-opacity="0"/>
</linearGradient>
</defs>
</svg>
