<svg width="178" height="178" viewBox="0 0 178 178" fill="none" xmlns="http://www.w3.org/2000/svg">
<g opacity="0.1">
<path fill-rule="evenodd" clip-rule="evenodd" d="M116.565 158.529C121.134 156.792 128.266 152.976 133.426 149.508C139.6 145.357 148.083 137.442 152.307 131.889C159.895 121.915 163.865 111.771 166.146 96.5229C167.68 86.2694 167.789 83.6662 167.93 53.9049C168.081 22.2531 168.218 24.2398 165.71 21.7321C163.29 19.3118 164.722 19.4205 135.245 19.4205C106.775 19.4205 107.772 19.3625 105.42 21.1567C104.819 21.6146 103.952 22.6282 103.493 23.4089L102.658 24.8285L102.575 51.7958L102.491 78.7631L103.158 80.3154C103.942 82.1377 106.094 84.1686 107.719 84.6201C108.386 84.8049 113.938 84.9316 121.432 84.9325L134.025 84.9344L134.025 86.8776C134.025 91.3019 132.763 98.8104 131.184 103.785C129.085 110.399 125.882 115.731 121.242 120.337C117.457 124.094 113.074 127.078 106.912 130.093C102.406 132.298 101.73 132.845 100.492 135.289C100.164 135.937 99.946 137.091 99.9352 138.231C99.9197 139.882 100.126 140.553 101.648 143.81C107.439 156.206 107.913 156.992 110.332 158.226C112.107 159.132 114.654 159.255 116.565 158.529ZM25.1814 158.756C26.894 158.44 34.947 154.499 39.3077 151.843C52.5371 143.786 62.8639 132.991 68.907 120.903C73.3257 112.064 75.5146 103.135 77.056 87.6569C77.4658 83.5438 77.5832 77.3938 77.6939 54.2164C77.8468 22.2172 77.9853 24.2435 75.4738 21.732C73.0538 19.3121 74.4837 19.4205 45.0247 19.4205C16.3108 19.4205 17.3173 19.3581 14.9823 21.2827C14.3697 21.7877 13.5085 22.9237 13.0681 23.8072L12.2677 25.4135L12.2745 52.1608C12.2813 78.4016 12.2934 78.9346 12.9108 80.299C13.6343 81.8976 14.7378 83.1426 16.2851 84.1062C17.3417 84.7644 17.6736 84.7836 30.6506 84.9344L43.9344 85.0889L43.8402 87.5611C43.5964 93.9466 42.0549 101.546 39.914 106.914C37.7128 112.434 35.0765 116.46 31.0758 120.412C27.4348 124.009 23.7175 126.572 17.8825 129.507C12.2888 132.322 10.7254 133.619 10.0922 135.97C9.34278 138.752 9.73743 140.155 13.4257 147.822C15.4841 152.1 17.3108 155.469 18.0153 156.286C19.8052 158.362 22.4245 159.265 25.1814 158.756Z" fill="white"/>
</g>
</svg>
