<svg width="46" height="45" viewBox="0 0 46 45" fill="none" xmlns="http://www.w3.org/2000/svg">
<path d="M30.4069 10.7467L30.4069 10.7467C30.4823 10.6668 30.5927 10.6836 30.6677 10.7075C30.7515 10.7342 30.8476 10.7868 30.9472 10.8527C31.148 10.9854 31.3859 11.1874 31.6074 11.4015C31.829 11.6158 32.0384 11.8465 32.1812 12.0386C32.2521 12.134 32.3099 12.2243 32.3436 12.301C32.3603 12.3389 32.3738 12.3795 32.3773 12.4192L30.4069 10.7467ZM30.4069 10.7467L30.4066 10.7471M30.4069 10.7467L30.4066 10.7471M30.4066 10.7471C30.1722 10.9979 30.0132 11.3096 30.0004 11.6431M30.4066 10.7471L30.0004 11.6431M30.0004 11.6431C29.9876 11.9797 30.1244 12.324 30.4549 12.6337M30.0004 11.6431L30.4549 12.6337M30.4549 12.6337C30.7857 12.9439 31.1385 13.0546 31.4728 13.0173C31.8037 12.9803 32.1027 12.7999 32.3351 12.5537L30.4549 12.6337Z" fill="#A0A0A0" stroke="#A0A0A0" stroke-width="0.204651"/>
<path d="M29.9828 12.835L28.9494 13.9374L28.5439 13.5524L28.4684 13.4807L28.398 13.5573L28.254 13.7141L28.1857 13.7885L28.2591 13.8578L29.3413 14.8795L29.4167 14.9507L29.4869 14.8743L29.6309 14.7175L29.6991 14.6433L29.6259 14.574L29.2547 14.2223L30.2886 13.1192C30.4276 13.2278 30.5748 13.3114 30.7176 13.3708C31.2887 13.6085 31.8866 13.4819 32.4416 13.036C32.8199 12.7394 33.1285 12.3378 33.3327 11.9507C33.4349 11.7568 33.512 11.5644 33.5584 11.3884C33.6037 11.2162 33.6214 11.0529 33.5989 10.9169L33.5964 10.8814L33.5936 10.8411L33.5641 10.8136L32.0514 9.40585L32.0282 9.38428L31.9969 9.37957L31.9598 9.37399L31.9599 9.37386L31.9548 9.37336C31.7994 9.35783 31.608 9.39871 31.4083 9.47552C31.2065 9.55319 30.9869 9.6712 30.7719 9.82013C30.3432 10.1171 29.9218 10.5447 29.6959 11.0379L29.6959 11.0379L29.6953 11.0395C29.5921 11.275 29.5129 11.5702 29.5447 11.8945C29.5745 12.1978 29.7008 12.5194 29.9828 12.835ZM32.1769 12.7096L32.1762 12.7101C31.8612 12.9616 31.3866 13.2009 30.8682 12.9852C30.7127 12.9205 30.553 12.8175 30.4091 12.6743L30.4091 12.6743L30.4067 12.672C30.1696 12.4512 30.0301 12.2203 29.9775 11.982C29.9251 11.7443 29.9569 11.489 30.0803 11.2148C30.2629 10.8097 30.6144 10.4506 30.9781 10.192C31.1591 10.0632 31.3406 9.96129 31.5014 9.89206C31.6426 9.83132 31.7613 9.79859 31.8473 9.79116L33.1893 11.0464C33.1886 11.1197 33.1717 11.2177 33.1356 11.3349C33.0935 11.4716 33.0272 11.6277 32.9389 11.7898C32.7619 12.1145 32.5002 12.4559 32.1769 12.7096Z" fill="#A0A0A0" stroke="#A0A0A0" stroke-width="0.204651"/>
<path d="M33.3573 9.72915L33.4519 9.69014L33.4129 9.59554L32.9032 8.35943L32.8642 8.26483L32.7696 8.30384L32.5678 8.38705L32.4732 8.42605L32.5122 8.52065L33.0218 9.75676L33.0609 9.85136L33.1555 9.81236L33.3573 9.72915Z" fill="#A0A0A0" stroke="#A0A0A0" stroke-width="0.204651"/>
<path d="M34.9523 8.24427L34.9916 8.1498L34.8971 8.11049L34.6956 8.02662L34.6011 7.98731L34.5618 8.08178L34.0481 9.31624L34.0088 9.41072L34.1033 9.45003L34.3048 9.53389L34.3993 9.57321L34.4386 9.47873L34.9523 8.24427Z" fill="#A0A0A0" stroke="#A0A0A0" stroke-width="0.204651"/>
<path d="M36.1378 10.0064L36.2324 9.96737L36.1934 9.87277L36.1102 9.67096L36.0712 9.57636L35.9766 9.61536L34.7321 10.1285L34.6375 10.1675L34.6765 10.2621L34.7597 10.4639L34.7987 10.5585L34.8933 10.5195L36.1378 10.0064Z" fill="#A0A0A0" stroke="#A0A0A0" stroke-width="0.204651"/>
<path d="M35.9899 13.0698L35.9899 13.0703C35.9771 13.4133 35.8681 13.7458 35.6405 13.9899C35.4107 14.2363 35.07 14.3819 34.6174 14.3658C34.1642 14.3496 33.837 14.1775 33.6279 13.914C33.4209 13.6532 33.3381 13.3138 33.349 12.9755L35.9899 13.0698ZM35.9899 13.0698C35.9935 12.9599 35.9037 12.8935 35.8339 12.8571M35.9899 13.0698L35.8339 12.8571M35.8339 12.8571C35.7559 12.8165 35.6508 12.7854 35.5339 12.7612M35.8339 12.8571L35.5339 12.7612M35.5339 12.7612C35.2982 12.7123 34.9872 12.6859 34.6793 12.6797M35.5339 12.7612L34.6793 12.6797M34.6793 12.6797C34.371 12.6735 34.0598 12.6875 33.8228 12.7217M34.6793 12.6797L33.8228 12.7217M33.8228 12.7217C33.7052 12.7386 33.6004 12.7612 33.5223 12.7913M33.8228 12.7217L33.5223 12.7913M33.5223 12.7913C33.4836 12.8062 33.4452 12.8253 33.4147 12.8508M33.5223 12.7913L33.4147 12.8508M33.4147 12.8508C33.3841 12.8764 33.3509 12.9177 33.349 12.9755L33.4147 12.8508Z" fill="#A0A0A0" stroke="#A0A0A0" stroke-width="0.204651"/>
<path d="M35.4125 16.4729L35.4147 16.3726L35.3145 16.3684L34.7575 16.345L34.8081 14.842C35.2306 14.8196 35.5477 14.6826 35.7825 14.4904C36.0335 14.285 36.1843 14.0218 36.2729 13.7841C36.4681 13.2776 36.4743 12.677 36.3817 12.1634C36.3353 11.9056 36.2634 11.6663 36.1756 11.4681C36.0887 11.2721 35.9823 11.1074 35.8618 11.0082L35.8619 11.0081L35.8578 11.0051L35.8277 10.9827L35.8024 10.9639L35.7709 10.9626L33.7181 10.8768L33.6847 10.8754L33.657 10.8939L33.6297 10.9121L33.6297 10.9121L33.6279 10.9133C33.5136 10.9932 33.4089 11.1232 33.3179 11.2798C33.2261 11.4378 33.1444 11.6293 33.0791 11.8397C32.9485 12.2597 32.8804 12.7636 32.9323 13.239C33.0071 13.9476 33.3474 14.4643 33.9099 14.6984C34.055 14.7588 34.2209 14.7976 34.3908 14.8224L34.337 16.3363L33.8258 16.3208L33.7251 16.3178L33.7205 16.4184L33.7108 16.6311L33.7061 16.7339L33.8089 16.738L35.3014 16.7975L35.4055 16.8017L35.4077 16.6975L35.4125 16.4729ZM34.0689 14.3163C33.5588 14.104 33.3907 13.607 33.3421 13.1941C33.2983 12.7876 33.3581 12.3621 33.4648 12.0082C33.518 11.8314 33.5823 11.6744 33.6498 11.5481C33.7075 11.44 33.7651 11.359 33.8166 11.3068L35.6411 11.3788C35.6965 11.445 35.757 11.5524 35.8134 11.6954C35.8776 11.8583 35.9332 12.0589 35.9695 12.2781C36.0423 12.7182 36.0353 13.2207 35.8766 13.6358C35.7691 13.9165 35.6115 14.1169 35.4064 14.2462C35.2013 14.3756 34.9397 14.4395 34.6147 14.4314C34.4107 14.4136 34.2218 14.3799 34.0689 14.3163Z" fill="#A0A0A0" stroke="#A0A0A0" stroke-width="0.204651"/>
<mask id="path-8-outside-1_1092_12746" maskUnits="userSpaceOnUse" x="-0.5" y="-0.426758" width="47" height="46" fill="black">
<rect fill="white" x="-0.5" y="-0.426758" width="47" height="46"/>
<path d="M43.1513 25.9099C43.2853 25.2685 43.4205 24.0642 42.7669 23.3585C42.0732 22.6094 40.7572 22.6393 40.1663 22.6967C39.9087 22.0833 39.1531 20.7001 37.531 20.5414C36.3715 20.4283 35.5472 21.0642 35.0577 21.7157C34.6926 20.544 33.8757 18.4444 32.4325 17.2251C30.3509 15.4666 26.0898 14.6657 23.0117 14.6657C20.1216 14.6657 16.1887 15.372 13.9961 16.9139V11.7732C14.5068 11.4275 15.1881 11.0796 15.9247 11.0176C17.4709 10.8862 18.728 11.5973 18.74 11.6042C18.908 11.7014 19.1231 11.6467 19.2241 11.4807C19.2328 11.4664 20.1086 10.0474 21.329 9.71113C22.5803 9.3664 24.3018 9.89211 24.3187 9.8973C24.4597 9.9416 24.6128 9.89417 24.7046 9.77875C24.7965 9.66334 24.808 9.50334 24.7336 9.37596C22.3391 5.27562 18.2464 2.97658 13.1832 2.87331V0.93057C13.1832 0.733236 13.0232 0.573242 12.8258 0.573242C12.6285 0.573242 12.4685 0.733236 12.4685 0.93057V2.87331C7.40526 2.97658 3.31252 5.27562 0.918073 9.37596C0.843749 9.50334 0.855273 9.66316 0.947017 9.77848C1.03876 9.8939 1.19196 9.94116 1.33275 9.89738C1.3499 9.89202 3.07151 9.36604 4.32278 9.71113C5.53751 10.0458 6.41913 11.4667 6.42771 11.4807C6.52847 11.6463 6.7434 11.701 6.91135 11.6045C6.92385 11.5973 8.182 10.8862 9.72718 11.0176C10.4618 11.0794 11.144 11.4284 11.6558 11.7748V19.9302C11.3417 20.5987 11.1156 21.235 10.9658 21.7158C10.4763 21.0642 9.65214 20.4282 8.49243 20.5415C6.87034 20.7002 6.11469 22.0834 5.85714 22.6968C5.26639 22.6396 3.95026 22.6095 3.25651 23.3586C2.60305 24.0643 2.73812 25.2686 2.87212 25.91C1.52919 26.1284 0.5 27.3085 0.5 28.7277V44.2159C0.5 44.4132 0.659993 44.5732 0.857327 44.5732C1.05466 44.5732 1.21465 44.4132 1.21465 44.2159V34.3195H44.8086V44.2159C44.8086 44.4132 44.9686 44.5732 45.1659 44.5732C45.3633 44.5732 45.5233 44.4132 45.5233 44.2159V28.7277C45.5233 27.3085 44.4941 26.1284 43.1513 25.9099ZM37.4613 21.2526C39.0272 21.4058 39.5663 23.1174 39.5882 23.1894C39.6401 23.3627 39.8142 23.4698 39.9922 23.4389C40.4413 23.3606 41.7212 23.2812 42.2425 23.8441C42.6803 24.3168 42.5607 25.3128 42.4284 25.8733H30.0314C30.152 25.5373 30.3682 25.0848 30.716 24.8302C31.3258 24.3839 32.1836 24.3996 32.1914 24.3998C32.3635 24.406 32.5108 24.2889 32.5499 24.1239C32.5519 24.1154 32.7591 23.2669 33.3512 23.0121C33.9897 22.7374 34.8314 22.9821 34.8392 22.9844C35.0185 23.0385 35.2099 22.9439 35.2767 22.7687C35.3025 22.7006 35.9298 21.1015 37.4613 21.2526ZM16.7439 25.8733C16.6195 25.4554 16.3219 24.6872 15.7294 24.2535C15.1593 23.8362 14.4648 23.7243 14.087 23.695C14.0225 23.5183 13.9155 23.2772 13.753 23.0412H32.2703C32.1078 23.2773 32.0008 23.5184 31.9363 23.695C31.5585 23.7243 30.864 23.8363 30.294 24.2535C29.7015 24.6872 29.4039 25.4554 29.2794 25.8733H16.7439ZM15.4517 21.7773C15.2361 21.4184 15.1896 20.9846 15.3243 20.5871C15.4567 20.1957 15.7503 19.8852 16.1296 19.735L17.9895 18.9986C18.3674 18.8491 18.7888 18.8752 19.1458 19.0708C19.5107 19.2704 19.7661 19.6221 19.8466 20.0355L20.2924 22.3266H15.7817L15.4517 21.7773ZM30.5716 21.7772L30.2415 22.3265H25.731L26.1767 20.0354C26.2571 19.6221 26.5126 19.2704 26.8776 19.0707C27.2346 18.8752 27.6559 18.8491 28.0339 18.9985L29.8938 19.7349C30.2731 19.8851 30.5666 20.1957 30.6991 20.587C30.8336 20.9846 30.7873 21.4185 30.5716 21.7772ZM23.0116 15.3804C26.0577 15.3804 30.1133 16.2015 31.9713 17.7711C33.3757 18.9576 34.1544 21.1747 34.4515 22.1887C34.0825 22.1496 33.595 22.1527 33.1425 22.3266H31.0754L31.1843 22.1453C31.5082 21.6063 31.5781 20.9548 31.376 20.358C31.1761 19.7674 30.7318 19.2982 30.1569 19.0706L28.297 18.3342C27.7208 18.1062 27.0786 18.1462 26.5345 18.4439C25.9825 18.7461 25.5965 19.2764 25.4754 19.8991L25.0031 22.3267H21.0205L20.5482 19.8991C20.4271 19.2764 20.0411 18.7461 19.4891 18.4439C18.9451 18.1461 18.3027 18.1061 17.7266 18.3342L15.8667 19.0706C15.2918 19.2982 14.8475 19.7674 14.6476 20.358C14.4456 20.9548 14.5155 21.6063 14.8393 22.1454L14.9482 22.3266H12.8811C12.4286 22.1527 11.941 22.1495 11.5721 22.1886C11.8692 21.1746 12.6478 18.9576 14.0523 17.7711C15.9099 16.2015 19.9656 15.3804 23.0116 15.3804ZM15.8645 10.3053C14.7526 10.399 13.7795 11.0114 13.1831 11.4815V3.73108C16.0298 4.81628 17.7598 7.10076 18.4516 10.6905C17.8661 10.468 16.9339 10.2159 15.8645 10.3053ZM23.6596 9.00952C22.9699 8.88418 21.9861 8.78878 21.1391 9.0222C20.2681 9.26223 19.5678 9.91052 19.1271 10.422C18.7693 8.6546 18.1561 7.16356 17.2992 5.98197C16.6215 5.04747 15.7768 4.28565 14.7774 3.7024C18.5433 4.16889 21.6318 6.00654 23.6596 9.00952ZM4.51252 9.02211C3.6653 8.78878 2.68166 8.884 1.99193 9.00943C4.01976 6.00645 7.10823 4.1688 10.8744 3.70222C9.87484 4.28556 9.03012 5.04738 8.35245 5.98188C7.49558 7.16356 6.88249 8.65451 6.52454 10.4219C6.08378 9.91043 5.38359 9.26215 4.51252 9.02211ZM9.33912 10.2866C8.45858 10.2866 7.70202 10.4998 7.19989 10.6909C7.89168 7.10103 9.62159 4.81637 12.4684 3.73116V11.4816C11.872 11.0114 10.8989 10.399 9.78694 10.3054C9.63472 10.2925 9.48527 10.2866 9.33912 10.2866ZM12.3702 12.3363C12.4928 12.4477 12.5622 12.5204 12.5651 12.5235C12.6326 12.5956 12.727 12.6364 12.8257 12.6364C12.9245 12.6364 13.0189 12.5956 13.0864 12.5235C13.0894 12.5203 13.1588 12.4475 13.2812 12.3356V17.5106C12.9393 17.8496 12.6365 18.236 12.3702 18.6415V12.3363ZM3.78071 23.8441C4.30187 23.2811 5.58191 23.3606 6.03062 23.4388C6.20848 23.4702 6.38206 23.363 6.43476 23.1902C6.45701 23.1175 6.99603 21.4058 8.56193 21.2527C10.0936 21.1026 10.7207 22.7007 10.7463 22.7679C10.8122 22.9436 11.0037 23.0381 11.1835 22.9848C11.1919 22.9822 12.0336 22.7373 12.6722 23.0122C13.2642 23.2671 13.4714 24.1155 13.4732 24.123C13.5107 24.2855 13.6563 24.4001 13.8222 24.4001C13.8252 24.4001 13.828 24.4001 13.8311 24.4001C13.839 24.3984 14.6977 24.3841 15.3074 24.8304C15.6552 25.085 15.8714 25.5376 15.9919 25.8735H3.59472C3.46242 25.3128 3.3429 24.3168 3.78071 23.8441ZM44.8086 33.6049H1.21465V28.7277C1.21465 27.5478 2.1597 26.588 3.32137 26.588H42.702C43.8636 26.588 44.8087 27.5478 44.8087 28.7277L44.8086 33.6049ZM11.6518 44.2159V39.8599H4.77855V44.2159C4.77855 44.4132 4.61856 44.5732 4.42122 44.5732C4.22389 44.5732 4.06389 44.4132 4.06389 44.2159V39.5026C4.06389 39.3053 4.22389 39.1453 4.42122 39.1453H12.0092C12.2065 39.1453 12.3665 39.3053 12.3665 39.5026V44.2159C12.3665 44.4132 12.2065 44.5732 12.0092 44.5732C11.8118 44.5732 11.6518 44.4132 11.6518 44.2159ZM26.4483 44.2159V39.8599H19.575V44.2159C19.575 44.4132 19.415 44.5732 19.2177 44.5732C19.0204 44.5732 18.8604 44.4132 18.8604 44.2159V39.5026C18.8604 39.3053 19.0204 39.1453 19.2177 39.1453H26.8056C27.003 39.1453 27.163 39.3053 27.163 39.5026V44.2159C27.163 44.4132 27.003 44.5732 26.8056 44.5732C26.6083 44.5732 26.4483 44.4132 26.4483 44.2159ZM41.2447 44.2159V39.8599H34.3714V44.2159C34.3714 44.4132 34.2114 44.5732 34.0141 44.5732C33.8168 44.5732 33.6568 44.4132 33.6568 44.2159V39.5026C33.6568 39.3053 33.8168 39.1453 34.0141 39.1453H41.602C41.7994 39.1453 41.9594 39.3053 41.9594 39.5026V44.2159C41.9594 44.4132 41.7994 44.5732 41.602 44.5732C41.4047 44.5732 41.2447 44.4132 41.2447 44.2159Z"/>
</mask>
<path d="M43.1513 25.9099C43.2853 25.2685 43.4205 24.0642 42.7669 23.3585C42.0732 22.6094 40.7572 22.6393 40.1663 22.6967C39.9087 22.0833 39.1531 20.7001 37.531 20.5414C36.3715 20.4283 35.5472 21.0642 35.0577 21.7157C34.6926 20.544 33.8757 18.4444 32.4325 17.2251C30.3509 15.4666 26.0898 14.6657 23.0117 14.6657C20.1216 14.6657 16.1887 15.372 13.9961 16.9139V11.7732C14.5068 11.4275 15.1881 11.0796 15.9247 11.0176C17.4709 10.8862 18.728 11.5973 18.74 11.6042C18.908 11.7014 19.1231 11.6467 19.2241 11.4807C19.2328 11.4664 20.1086 10.0474 21.329 9.71113C22.5803 9.3664 24.3018 9.89211 24.3187 9.8973C24.4597 9.9416 24.6128 9.89417 24.7046 9.77875C24.7965 9.66334 24.808 9.50334 24.7336 9.37596C22.3391 5.27562 18.2464 2.97658 13.1832 2.87331V0.93057C13.1832 0.733236 13.0232 0.573242 12.8258 0.573242C12.6285 0.573242 12.4685 0.733236 12.4685 0.93057V2.87331C7.40526 2.97658 3.31252 5.27562 0.918073 9.37596C0.843749 9.50334 0.855273 9.66316 0.947017 9.77848C1.03876 9.8939 1.19196 9.94116 1.33275 9.89738C1.3499 9.89202 3.07151 9.36604 4.32278 9.71113C5.53751 10.0458 6.41913 11.4667 6.42771 11.4807C6.52847 11.6463 6.7434 11.701 6.91135 11.6045C6.92385 11.5973 8.182 10.8862 9.72718 11.0176C10.4618 11.0794 11.144 11.4284 11.6558 11.7748V19.9302C11.3417 20.5987 11.1156 21.235 10.9658 21.7158C10.4763 21.0642 9.65214 20.4282 8.49243 20.5415C6.87034 20.7002 6.11469 22.0834 5.85714 22.6968C5.26639 22.6396 3.95026 22.6095 3.25651 23.3586C2.60305 24.0643 2.73812 25.2686 2.87212 25.91C1.52919 26.1284 0.5 27.3085 0.5 28.7277V44.2159C0.5 44.4132 0.659993 44.5732 0.857327 44.5732C1.05466 44.5732 1.21465 44.4132 1.21465 44.2159V34.3195H44.8086V44.2159C44.8086 44.4132 44.9686 44.5732 45.1659 44.5732C45.3633 44.5732 45.5233 44.4132 45.5233 44.2159V28.7277C45.5233 27.3085 44.4941 26.1284 43.1513 25.9099ZM37.4613 21.2526C39.0272 21.4058 39.5663 23.1174 39.5882 23.1894C39.6401 23.3627 39.8142 23.4698 39.9922 23.4389C40.4413 23.3606 41.7212 23.2812 42.2425 23.8441C42.6803 24.3168 42.5607 25.3128 42.4284 25.8733H30.0314C30.152 25.5373 30.3682 25.0848 30.716 24.8302C31.3258 24.3839 32.1836 24.3996 32.1914 24.3998C32.3635 24.406 32.5108 24.2889 32.5499 24.1239C32.5519 24.1154 32.7591 23.2669 33.3512 23.0121C33.9897 22.7374 34.8314 22.9821 34.8392 22.9844C35.0185 23.0385 35.2099 22.9439 35.2767 22.7687C35.3025 22.7006 35.9298 21.1015 37.4613 21.2526ZM16.7439 25.8733C16.6195 25.4554 16.3219 24.6872 15.7294 24.2535C15.1593 23.8362 14.4648 23.7243 14.087 23.695C14.0225 23.5183 13.9155 23.2772 13.753 23.0412H32.2703C32.1078 23.2773 32.0008 23.5184 31.9363 23.695C31.5585 23.7243 30.864 23.8363 30.294 24.2535C29.7015 24.6872 29.4039 25.4554 29.2794 25.8733H16.7439ZM15.4517 21.7773C15.2361 21.4184 15.1896 20.9846 15.3243 20.5871C15.4567 20.1957 15.7503 19.8852 16.1296 19.735L17.9895 18.9986C18.3674 18.8491 18.7888 18.8752 19.1458 19.0708C19.5107 19.2704 19.7661 19.6221 19.8466 20.0355L20.2924 22.3266H15.7817L15.4517 21.7773ZM30.5716 21.7772L30.2415 22.3265H25.731L26.1767 20.0354C26.2571 19.6221 26.5126 19.2704 26.8776 19.0707C27.2346 18.8752 27.6559 18.8491 28.0339 18.9985L29.8938 19.7349C30.2731 19.8851 30.5666 20.1957 30.6991 20.587C30.8336 20.9846 30.7873 21.4185 30.5716 21.7772ZM23.0116 15.3804C26.0577 15.3804 30.1133 16.2015 31.9713 17.7711C33.3757 18.9576 34.1544 21.1747 34.4515 22.1887C34.0825 22.1496 33.595 22.1527 33.1425 22.3266H31.0754L31.1843 22.1453C31.5082 21.6063 31.5781 20.9548 31.376 20.358C31.1761 19.7674 30.7318 19.2982 30.1569 19.0706L28.297 18.3342C27.7208 18.1062 27.0786 18.1462 26.5345 18.4439C25.9825 18.7461 25.5965 19.2764 25.4754 19.8991L25.0031 22.3267H21.0205L20.5482 19.8991C20.4271 19.2764 20.0411 18.7461 19.4891 18.4439C18.9451 18.1461 18.3027 18.1061 17.7266 18.3342L15.8667 19.0706C15.2918 19.2982 14.8475 19.7674 14.6476 20.358C14.4456 20.9548 14.5155 21.6063 14.8393 22.1454L14.9482 22.3266H12.8811C12.4286 22.1527 11.941 22.1495 11.5721 22.1886C11.8692 21.1746 12.6478 18.9576 14.0523 17.7711C15.9099 16.2015 19.9656 15.3804 23.0116 15.3804ZM15.8645 10.3053C14.7526 10.399 13.7795 11.0114 13.1831 11.4815V3.73108C16.0298 4.81628 17.7598 7.10076 18.4516 10.6905C17.8661 10.468 16.9339 10.2159 15.8645 10.3053ZM23.6596 9.00952C22.9699 8.88418 21.9861 8.78878 21.1391 9.0222C20.2681 9.26223 19.5678 9.91052 19.1271 10.422C18.7693 8.6546 18.1561 7.16356 17.2992 5.98197C16.6215 5.04747 15.7768 4.28565 14.7774 3.7024C18.5433 4.16889 21.6318 6.00654 23.6596 9.00952ZM4.51252 9.02211C3.6653 8.78878 2.68166 8.884 1.99193 9.00943C4.01976 6.00645 7.10823 4.1688 10.8744 3.70222C9.87484 4.28556 9.03012 5.04738 8.35245 5.98188C7.49558 7.16356 6.88249 8.65451 6.52454 10.4219C6.08378 9.91043 5.38359 9.26215 4.51252 9.02211ZM9.33912 10.2866C8.45858 10.2866 7.70202 10.4998 7.19989 10.6909C7.89168 7.10103 9.62159 4.81637 12.4684 3.73116V11.4816C11.872 11.0114 10.8989 10.399 9.78694 10.3054C9.63472 10.2925 9.48527 10.2866 9.33912 10.2866ZM12.3702 12.3363C12.4928 12.4477 12.5622 12.5204 12.5651 12.5235C12.6326 12.5956 12.727 12.6364 12.8257 12.6364C12.9245 12.6364 13.0189 12.5956 13.0864 12.5235C13.0894 12.5203 13.1588 12.4475 13.2812 12.3356V17.5106C12.9393 17.8496 12.6365 18.236 12.3702 18.6415V12.3363ZM3.78071 23.8441C4.30187 23.2811 5.58191 23.3606 6.03062 23.4388C6.20848 23.4702 6.38206 23.363 6.43476 23.1902C6.45701 23.1175 6.99603 21.4058 8.56193 21.2527C10.0936 21.1026 10.7207 22.7007 10.7463 22.7679C10.8122 22.9436 11.0037 23.0381 11.1835 22.9848C11.1919 22.9822 12.0336 22.7373 12.6722 23.0122C13.2642 23.2671 13.4714 24.1155 13.4732 24.123C13.5107 24.2855 13.6563 24.4001 13.8222 24.4001C13.8252 24.4001 13.828 24.4001 13.8311 24.4001C13.839 24.3984 14.6977 24.3841 15.3074 24.8304C15.6552 25.085 15.8714 25.5376 15.9919 25.8735H3.59472C3.46242 25.3128 3.3429 24.3168 3.78071 23.8441ZM44.8086 33.6049H1.21465V28.7277C1.21465 27.5478 2.1597 26.588 3.32137 26.588H42.702C43.8636 26.588 44.8087 27.5478 44.8087 28.7277L44.8086 33.6049ZM11.6518 44.2159V39.8599H4.77855V44.2159C4.77855 44.4132 4.61856 44.5732 4.42122 44.5732C4.22389 44.5732 4.06389 44.4132 4.06389 44.2159V39.5026C4.06389 39.3053 4.22389 39.1453 4.42122 39.1453H12.0092C12.2065 39.1453 12.3665 39.3053 12.3665 39.5026V44.2159C12.3665 44.4132 12.2065 44.5732 12.0092 44.5732C11.8118 44.5732 11.6518 44.4132 11.6518 44.2159ZM26.4483 44.2159V39.8599H19.575V44.2159C19.575 44.4132 19.415 44.5732 19.2177 44.5732C19.0204 44.5732 18.8604 44.4132 18.8604 44.2159V39.5026C18.8604 39.3053 19.0204 39.1453 19.2177 39.1453H26.8056C27.003 39.1453 27.163 39.3053 27.163 39.5026V44.2159C27.163 44.4132 27.003 44.5732 26.8056 44.5732C26.6083 44.5732 26.4483 44.4132 26.4483 44.2159ZM41.2447 44.2159V39.8599H34.3714V44.2159C34.3714 44.4132 34.2114 44.5732 34.0141 44.5732C33.8168 44.5732 33.6568 44.4132 33.6568 44.2159V39.5026C33.6568 39.3053 33.8168 39.1453 34.0141 39.1453H41.602C41.7994 39.1453 41.9594 39.3053 41.9594 39.5026V44.2159C41.9594 44.4132 41.7994 44.5732 41.602 44.5732C41.4047 44.5732 41.2447 44.4132 41.2447 44.2159Z" fill="#A0A0A0"/>
<path d="M43.1513 25.9099C43.2853 25.2685 43.4205 24.0642 42.7669 23.3585C42.0732 22.6094 40.7572 22.6393 40.1663 22.6967C39.9087 22.0833 39.1531 20.7001 37.531 20.5414C36.3715 20.4283 35.5472 21.0642 35.0577 21.7157C34.6926 20.544 33.8757 18.4444 32.4325 17.2251C30.3509 15.4666 26.0898 14.6657 23.0117 14.6657C20.1216 14.6657 16.1887 15.372 13.9961 16.9139V11.7732C14.5068 11.4275 15.1881 11.0796 15.9247 11.0176C17.4709 10.8862 18.728 11.5973 18.74 11.6042C18.908 11.7014 19.1231 11.6467 19.2241 11.4807C19.2328 11.4664 20.1086 10.0474 21.329 9.71113C22.5803 9.3664 24.3018 9.89211 24.3187 9.8973C24.4597 9.9416 24.6128 9.89417 24.7046 9.77875C24.7965 9.66334 24.808 9.50334 24.7336 9.37596C22.3391 5.27562 18.2464 2.97658 13.1832 2.87331V0.93057C13.1832 0.733236 13.0232 0.573242 12.8258 0.573242C12.6285 0.573242 12.4685 0.733236 12.4685 0.93057V2.87331C7.40526 2.97658 3.31252 5.27562 0.918073 9.37596C0.843749 9.50334 0.855273 9.66316 0.947017 9.77848C1.03876 9.8939 1.19196 9.94116 1.33275 9.89738C1.3499 9.89202 3.07151 9.36604 4.32278 9.71113C5.53751 10.0458 6.41913 11.4667 6.42771 11.4807C6.52847 11.6463 6.7434 11.701 6.91135 11.6045C6.92385 11.5973 8.182 10.8862 9.72718 11.0176C10.4618 11.0794 11.144 11.4284 11.6558 11.7748V19.9302C11.3417 20.5987 11.1156 21.235 10.9658 21.7158C10.4763 21.0642 9.65214 20.4282 8.49243 20.5415C6.87034 20.7002 6.11469 22.0834 5.85714 22.6968C5.26639 22.6396 3.95026 22.6095 3.25651 23.3586C2.60305 24.0643 2.73812 25.2686 2.87212 25.91C1.52919 26.1284 0.5 27.3085 0.5 28.7277V44.2159C0.5 44.4132 0.659993 44.5732 0.857327 44.5732C1.05466 44.5732 1.21465 44.4132 1.21465 44.2159V34.3195H44.8086V44.2159C44.8086 44.4132 44.9686 44.5732 45.1659 44.5732C45.3633 44.5732 45.5233 44.4132 45.5233 44.2159V28.7277C45.5233 27.3085 44.4941 26.1284 43.1513 25.9099ZM37.4613 21.2526C39.0272 21.4058 39.5663 23.1174 39.5882 23.1894C39.6401 23.3627 39.8142 23.4698 39.9922 23.4389C40.4413 23.3606 41.7212 23.2812 42.2425 23.8441C42.6803 24.3168 42.5607 25.3128 42.4284 25.8733H30.0314C30.152 25.5373 30.3682 25.0848 30.716 24.8302C31.3258 24.3839 32.1836 24.3996 32.1914 24.3998C32.3635 24.406 32.5108 24.2889 32.5499 24.1239C32.5519 24.1154 32.7591 23.2669 33.3512 23.0121C33.9897 22.7374 34.8314 22.9821 34.8392 22.9844C35.0185 23.0385 35.2099 22.9439 35.2767 22.7687C35.3025 22.7006 35.9298 21.1015 37.4613 21.2526ZM16.7439 25.8733C16.6195 25.4554 16.3219 24.6872 15.7294 24.2535C15.1593 23.8362 14.4648 23.7243 14.087 23.695C14.0225 23.5183 13.9155 23.2772 13.753 23.0412H32.2703C32.1078 23.2773 32.0008 23.5184 31.9363 23.695C31.5585 23.7243 30.864 23.8363 30.294 24.2535C29.7015 24.6872 29.4039 25.4554 29.2794 25.8733H16.7439ZM15.4517 21.7773C15.2361 21.4184 15.1896 20.9846 15.3243 20.5871C15.4567 20.1957 15.7503 19.8852 16.1296 19.735L17.9895 18.9986C18.3674 18.8491 18.7888 18.8752 19.1458 19.0708C19.5107 19.2704 19.7661 19.6221 19.8466 20.0355L20.2924 22.3266H15.7817L15.4517 21.7773ZM30.5716 21.7772L30.2415 22.3265H25.731L26.1767 20.0354C26.2571 19.6221 26.5126 19.2704 26.8776 19.0707C27.2346 18.8752 27.6559 18.8491 28.0339 18.9985L29.8938 19.7349C30.2731 19.8851 30.5666 20.1957 30.6991 20.587C30.8336 20.9846 30.7873 21.4185 30.5716 21.7772ZM23.0116 15.3804C26.0577 15.3804 30.1133 16.2015 31.9713 17.7711C33.3757 18.9576 34.1544 21.1747 34.4515 22.1887C34.0825 22.1496 33.595 22.1527 33.1425 22.3266H31.0754L31.1843 22.1453C31.5082 21.6063 31.5781 20.9548 31.376 20.358C31.1761 19.7674 30.7318 19.2982 30.1569 19.0706L28.297 18.3342C27.7208 18.1062 27.0786 18.1462 26.5345 18.4439C25.9825 18.7461 25.5965 19.2764 25.4754 19.8991L25.0031 22.3267H21.0205L20.5482 19.8991C20.4271 19.2764 20.0411 18.7461 19.4891 18.4439C18.9451 18.1461 18.3027 18.1061 17.7266 18.3342L15.8667 19.0706C15.2918 19.2982 14.8475 19.7674 14.6476 20.358C14.4456 20.9548 14.5155 21.6063 14.8393 22.1454L14.9482 22.3266H12.8811C12.4286 22.1527 11.941 22.1495 11.5721 22.1886C11.8692 21.1746 12.6478 18.9576 14.0523 17.7711C15.9099 16.2015 19.9656 15.3804 23.0116 15.3804ZM15.8645 10.3053C14.7526 10.399 13.7795 11.0114 13.1831 11.4815V3.73108C16.0298 4.81628 17.7598 7.10076 18.4516 10.6905C17.8661 10.468 16.9339 10.2159 15.8645 10.3053ZM23.6596 9.00952C22.9699 8.88418 21.9861 8.78878 21.1391 9.0222C20.2681 9.26223 19.5678 9.91052 19.1271 10.422C18.7693 8.6546 18.1561 7.16356 17.2992 5.98197C16.6215 5.04747 15.7768 4.28565 14.7774 3.7024C18.5433 4.16889 21.6318 6.00654 23.6596 9.00952ZM4.51252 9.02211C3.6653 8.78878 2.68166 8.884 1.99193 9.00943C4.01976 6.00645 7.10823 4.1688 10.8744 3.70222C9.87484 4.28556 9.03012 5.04738 8.35245 5.98188C7.49558 7.16356 6.88249 8.65451 6.52454 10.4219C6.08378 9.91043 5.38359 9.26215 4.51252 9.02211ZM9.33912 10.2866C8.45858 10.2866 7.70202 10.4998 7.19989 10.6909C7.89168 7.10103 9.62159 4.81637 12.4684 3.73116V11.4816C11.872 11.0114 10.8989 10.399 9.78694 10.3054C9.63472 10.2925 9.48527 10.2866 9.33912 10.2866ZM12.3702 12.3363C12.4928 12.4477 12.5622 12.5204 12.5651 12.5235C12.6326 12.5956 12.727 12.6364 12.8257 12.6364C12.9245 12.6364 13.0189 12.5956 13.0864 12.5235C13.0894 12.5203 13.1588 12.4475 13.2812 12.3356V17.5106C12.9393 17.8496 12.6365 18.236 12.3702 18.6415V12.3363ZM3.78071 23.8441C4.30187 23.2811 5.58191 23.3606 6.03062 23.4388C6.20848 23.4702 6.38206 23.363 6.43476 23.1902C6.45701 23.1175 6.99603 21.4058 8.56193 21.2527C10.0936 21.1026 10.7207 22.7007 10.7463 22.7679C10.8122 22.9436 11.0037 23.0381 11.1835 22.9848C11.1919 22.9822 12.0336 22.7373 12.6722 23.0122C13.2642 23.2671 13.4714 24.1155 13.4732 24.123C13.5107 24.2855 13.6563 24.4001 13.8222 24.4001C13.8252 24.4001 13.828 24.4001 13.8311 24.4001C13.839 24.3984 14.6977 24.3841 15.3074 24.8304C15.6552 25.085 15.8714 25.5376 15.9919 25.8735H3.59472C3.46242 25.3128 3.3429 24.3168 3.78071 23.8441ZM44.8086 33.6049H1.21465V28.7277C1.21465 27.5478 2.1597 26.588 3.32137 26.588H42.702C43.8636 26.588 44.8087 27.5478 44.8087 28.7277L44.8086 33.6049ZM11.6518 44.2159V39.8599H4.77855V44.2159C4.77855 44.4132 4.61856 44.5732 4.42122 44.5732C4.22389 44.5732 4.06389 44.4132 4.06389 44.2159V39.5026C4.06389 39.3053 4.22389 39.1453 4.42122 39.1453H12.0092C12.2065 39.1453 12.3665 39.3053 12.3665 39.5026V44.2159C12.3665 44.4132 12.2065 44.5732 12.0092 44.5732C11.8118 44.5732 11.6518 44.4132 11.6518 44.2159ZM26.4483 44.2159V39.8599H19.575V44.2159C19.575 44.4132 19.415 44.5732 19.2177 44.5732C19.0204 44.5732 18.8604 44.4132 18.8604 44.2159V39.5026C18.8604 39.3053 19.0204 39.1453 19.2177 39.1453H26.8056C27.003 39.1453 27.163 39.3053 27.163 39.5026V44.2159C27.163 44.4132 27.003 44.5732 26.8056 44.5732C26.6083 44.5732 26.4483 44.4132 26.4483 44.2159ZM41.2447 44.2159V39.8599H34.3714V44.2159C34.3714 44.4132 34.2114 44.5732 34.0141 44.5732C33.8168 44.5732 33.6568 44.4132 33.6568 44.2159V39.5026C33.6568 39.3053 33.8168 39.1453 34.0141 39.1453H41.602C41.7994 39.1453 41.9594 39.3053 41.9594 39.5026V44.2159C41.9594 44.4132 41.7994 44.5732 41.602 44.5732C41.4047 44.5732 41.2447 44.4132 41.2447 44.2159Z" stroke="#A0A0A0" stroke-width="0.409302" mask="url(#path-8-outside-1_1092_12746)"/>
</svg>
