<svg width="33" height="33" viewBox="0 0 33 33" fill="none" xmlns="http://www.w3.org/2000/svg">
<path d="M23.4167 15.2399V7.23991C23.4167 5.77324 22.2167 4.57324 20.75 4.57324H12.75C11.2833 4.57324 10.0833 5.77324 10.0833 7.23991V9.90658H7.41667C5.95 9.90658 4.75 11.1066 4.75 12.5732V25.9066C4.75 27.3732 5.95 28.5732 7.41667 28.5732H14.0833C14.8167 28.5732 15.4167 27.9732 15.4167 27.2399V23.2399H18.0833V27.2399C18.0833 27.9732 18.6833 28.5732 19.4167 28.5732H26.0833C27.55 28.5732 28.75 27.3732 28.75 25.9066V17.9066C28.75 16.4399 27.55 15.2399 26.0833 15.2399H23.4167ZM10.0833 25.9066H7.41667V23.2399H10.0833V25.9066ZM10.0833 20.5732H7.41667V17.9066H10.0833V20.5732ZM10.0833 15.2399H7.41667V12.5732H10.0833V15.2399ZM15.4167 20.5732H12.75V17.9066H15.4167V20.5732ZM15.4167 15.2399H12.75V12.5732H15.4167V15.2399ZM15.4167 9.90658H12.75V7.23991H15.4167V9.90658ZM20.75 20.5732H18.0833V17.9066H20.75V20.5732ZM20.75 15.2399H18.0833V12.5732H20.75V15.2399ZM20.75 9.90658H18.0833V7.23991H20.75V9.90658ZM26.0833 25.9066H23.4167V23.2399H26.0833V25.9066ZM26.0833 20.5732H23.4167V17.9066H26.0833V20.5732Z" fill="#A0A0A0"/>
</svg>
