<svg width="45" height="45" viewBox="0 0 45 45" fill="none" xmlns="http://www.w3.org/2000/svg">
<path d="M28.7483 31.6992H28.6681L28.6507 31.7775L26.1271 43.1324L26.1001 43.2541H26.2247H27.3695V44.4734H17.634V43.2541H18.7788H18.9035L18.8764 43.1324L16.3528 31.7775L16.3354 31.6992H16.2552H14.7953V30.4799H30.2082V31.6992H28.7483ZM17.7086 31.6992H17.5839L17.611 31.8209L20.1339 43.1758L20.1513 43.2541H20.2315H24.7706H24.8508L24.8682 43.1758L27.3918 31.8209L27.4189 31.6992H27.2942H17.7086Z" fill="#A0A0A0" stroke="#1A1A1A" stroke-width="0.2"/>
<path d="M8.01358 36.0888L8.03638 36.1571H8.10845H12.5645C14.4659 36.1571 16.0129 37.7042 16.0129 39.6055C16.0129 40.7241 15.1025 41.6346 13.9839 41.6346H10.4355H10.3355V41.7346V43.1539V43.2539H10.4355H13.1742V44.4733H6.27742V43.2539H9.01613H9.11613V43.1539V41.7346V41.6346H9.01613H6.80407C5.31774 41.6346 4.00262 40.687 3.53294 39.2766L3.53293 39.2766L0.7255 30.855C0.725489 30.8549 0.725477 30.8549 0.725465 30.8549C0.64223 30.6038 0.6 30.344 0.6 30.0824C0.6 28.736 1.69497 27.641 3.04135 27.641H3.43806C4.49006 27.641 5.42057 28.3111 5.75398 29.31L8.01358 36.0888ZM4.59745 29.6959L4.59742 29.6958C4.43053 29.1967 3.9652 28.8604 3.43806 28.8604H3.04135C2.36729 28.8604 1.81935 29.4083 1.81935 30.0824C1.81935 30.2136 1.8402 30.3443 1.88274 30.4704C1.88276 30.4705 1.88278 30.4705 1.8828 30.4706L4.68945 38.8906C4.68945 38.8906 4.68945 38.8906 4.68945 38.8906C4.99333 39.8029 5.84342 40.4152 6.80407 40.4152H13.9839C14.4301 40.4152 14.7935 40.0526 14.7935 39.6055C14.7935 38.3765 13.7936 37.3765 12.5645 37.3765H7.15718L4.59745 29.6959Z" fill="#A0A0A0" stroke="#1A1A1A" stroke-width="0.2"/>
<path d="M39.2457 29.3099L39.2457 29.3099C39.5784 28.3111 40.5095 27.641 41.5616 27.641H41.9583C43.3047 27.641 44.3996 28.736 44.3996 30.0824C44.3996 30.344 44.3574 30.6038 44.2748 30.8535C44.2748 30.8535 44.2748 30.8536 44.2748 30.8536L41.4667 39.2766L41.4667 39.2766C40.997 40.687 39.6819 41.6346 38.1956 41.6346H35.9835H35.8835V41.7346V43.1539V43.2539H35.9835H38.7222V44.4733H31.8254V43.2539H34.5641H34.6641V43.1539V41.7346V41.6346H34.5641H31.0158C29.8972 41.6346 28.9867 40.7241 28.9867 39.6055C28.9867 37.7042 30.5338 36.1571 32.4351 36.1571H36.8912H36.9632L36.986 36.0888L39.2457 29.3099ZM38.1956 40.4152C39.1562 40.4152 40.0063 39.8029 40.3102 38.8906L43.1176 30.469C43.1176 30.469 43.1176 30.469 43.1176 30.4689C43.1594 30.3442 43.1803 30.2136 43.1803 30.0824C43.1803 29.4083 42.6323 28.8604 41.9583 28.8604H41.5616C41.0352 28.8604 40.5691 29.1966 40.4029 29.6959C40.4029 29.6959 40.4029 29.6959 40.4029 29.696L37.8425 37.3765H32.4351C31.2061 37.3765 30.2061 38.3765 30.2061 39.6055C30.2061 40.0526 30.5696 40.4152 31.0158 40.4152H38.1956Z" fill="#A0A0A0" stroke="#1A1A1A" stroke-width="0.2"/>
<path d="M25.8815 14.7767L26.0124 16.0861H18.9876L19.1185 14.7767L19.1295 14.6668H19.019H17.5323H17.4323V14.7668V20.4442C17.4323 21.1718 16.8404 21.7636 16.1129 21.7636H1.91935C1.19181 21.7636 0.6 21.1718 0.6 20.4442V6.25066C0.6 5.52312 1.19181 4.93131 1.91935 4.93131H14.5935V6.15066H1.91935H1.81935V6.25066V20.4442V20.5442H1.91935H16.1129H16.2129V20.4442V14.7668V14.6668H16.1129H13.3102L13.8754 9.01772C14.0038 7.73429 14.9308 6.72519 16.136 6.43951L16.2129 6.42128V6.34221V1.9926V1.8926H16.1129H14.7935V0.673242H30.2064V1.8926H28.8871H28.7871V1.9926V6.34221V6.42128L28.864 6.43951C30.0692 6.72519 30.9962 7.73427 31.1246 9.01841L31.2241 9.00847L31.1246 9.01843L31.6898 14.6668H28.8871H28.7871V14.7668V20.4442V20.5442H28.8871H43.0806H43.1806V20.4442V6.25066V6.15066H43.0806H30.4065V4.93131H43.0806C43.8082 4.93131 44.4 5.52312 44.4 6.25066V20.4442C44.4 21.1718 43.8082 21.7636 43.0806 21.7636H28.8871C28.1596 21.7636 27.5677 21.1718 27.5677 20.4442V14.7668V14.6668H27.4677H25.981H25.8705L25.8815 14.7767ZM14.6686 13.3375L14.6576 13.4474H14.7681H18.8771H18.9876L18.9766 13.3375L18.5565 9.13982C18.4677 8.24479 17.7213 7.57002 16.8226 7.57002C15.9239 7.57002 15.1775 8.24479 15.0887 9.13982L14.6686 13.3375ZM17.4323 6.34221V6.42128L17.5092 6.43951C18.7144 6.72518 19.6414 7.73426 19.7704 9.01842C19.7704 9.01843 19.7704 9.01845 19.7704 9.01847L19.7853 9.16745L19.8154 9.46775L19.9706 9.20894C20.375 8.53473 21.0324 8.04347 21.8133 7.85888L21.8903 7.84068V7.76156V1.9926V1.8926H21.7903H17.5323H17.4323V1.9926V6.34221ZM20.346 14.7568L20.335 14.8668H20.4455H24.5545H24.665L24.654 14.7568L24.2339 10.5592C24.1451 9.66415 23.3987 8.98937 22.5 8.98937C21.6013 8.98937 20.8549 9.66415 20.7661 10.5592L20.346 14.7568ZM25.0302 9.209L25.1854 9.46737L25.2154 9.16745L25.2303 9.01842C25.3586 7.73429 26.2856 6.7252 27.4915 6.43952L27.5685 6.42129V6.34221V1.9926V1.8926H27.4685H23.2104H23.1104V1.9926V7.76156V7.84061L23.1873 7.85886C23.9683 8.04415 24.6251 8.53475 25.0302 9.209ZM30.2319 13.4474H30.3424L30.3314 13.3375L29.9113 9.13982C29.8225 8.24479 29.0761 7.57002 28.1774 7.57002C27.2787 7.57002 26.5323 8.24479 26.4435 9.13982L26.0234 13.3375L26.0124 13.4474H26.1229H30.2319Z" fill="#A0A0A0" stroke="#1A1A1A" stroke-width="0.2"/>
<path d="M40.3402 9.08928V8.98928H40.2402H31.824V7.76992H41.5595V18.9248H30.4047V16.2861H31.624V17.6054V17.7054H31.724H40.2402H40.3402V17.6054V9.08928Z" fill="#A0A0A0" stroke="#1A1A1A" stroke-width="0.2"/>
<path d="M13.2753 17.7054H13.3753V17.6054V16.2861H14.5947V18.9248H3.43984V7.76992H13.1753V8.98928H4.7592H4.6592V9.08928V17.6054V17.7054H4.7592H13.2753Z" fill="#A0A0A0" stroke="#1A1A1A" stroke-width="0.2"/>
</svg>
