<svg width="50" height="49" viewBox="0 0 50 49" fill="none" xmlns="http://www.w3.org/2000/svg">
<rect x="0.921875" y="0.125" width="48.75" height="48.75" rx="24.375" fill="#121212"/>
<path d="M25.3751 16C25.3836 16 25.3928 16 25.4027 16.0001L25.5089 16.0004C26.7416 16.005 32.9892 16.0506 34.6737 16.5073C35.7064 16.7865 36.5195 17.6096 36.7955 18.6543C36.9474 19.2283 37.0533 19.9912 37.1271 20.7758L37.1415 20.9329C37.1531 21.0641 37.1638 21.1955 37.1737 21.3264L37.1853 21.4833C37.2839 22.8659 37.2954 24.1596 37.2967 24.4427L37.2969 24.4809C37.2969 24.484 37.2969 24.4891 37.2969 24.4891V24.5106C37.2969 24.5106 37.2969 24.5157 37.2969 24.5188L37.2967 24.557C37.2953 24.8508 37.283 26.233 37.1737 27.6734L37.1614 27.8307L37.1483 27.9881C37.074 28.8541 36.9626 29.7141 36.7955 30.3454C36.5195 31.3901 35.7064 32.2134 34.6737 32.4924C32.9331 32.9645 26.32 32.9975 25.4027 32.9998L25.332 33C25.3262 33 25.3211 33 25.3168 33L25.2879 33C25.2879 33 25.2813 33 25.2769 33L25.191 32.9998C24.7275 32.9987 22.8092 32.9896 20.8003 32.9201L20.5434 32.9109C20.5006 32.9093 20.4577 32.9077 20.4148 32.906L20.1577 32.8958L19.9012 32.8848C18.2369 32.8111 16.6501 32.6904 15.9202 32.4924C14.8875 32.2134 14.0744 31.3901 13.7984 30.3454C13.6312 29.7141 13.5197 28.8541 13.4454 27.9881L13.4323 27.8307L13.42 27.6734C13.3147 26.2854 13.2994 24.9514 13.2972 24.5933L13.2969 24.5421C13.2969 24.5374 13.2969 24.5332 13.2969 24.5293V24.4704C13.2969 24.4665 13.2969 24.4623 13.2969 24.4576L13.2972 24.4064C13.2992 24.0821 13.3119 22.9574 13.3925 21.717L13.403 21.5614C13.4048 21.5354 13.4066 21.5094 13.4085 21.4833L13.42 21.3264C13.43 21.1955 13.4407 21.0641 13.4523 20.9329L13.4666 20.7758C13.5405 19.9912 13.6464 19.2283 13.7984 18.6543C14.0744 17.6096 14.8875 16.7865 15.9202 16.5073C16.6501 16.3094 18.2369 16.1887 19.9012 16.1151L20.1577 16.1041L20.4148 16.0939C20.4577 16.0922 20.5006 16.0906 20.5434 16.089L20.8003 16.0798C22.681 16.0147 24.4822 16.0026 25.0848 16.0004L25.191 16.0001C25.2009 16 25.2101 16 25.2186 16H25.3751ZM22.8969 20.8569V28.1428L29.132 24.5L22.8969 20.8569Z" fill="#E91D24"/>
</svg>
