<svg width="196" height="35" viewBox="0 0 196 35" fill="none" xmlns="http://www.w3.org/2000/svg">
<path d="M47.834 23.6704L48.6062 25.339H50.7667C51.1138 25.339 51.3431 24.9791 51.1982 24.6655L50.738 23.6704H47.8356H47.834Z" fill="white"/>
<path d="M44.3151 10.0864H43.8151C43.7292 10.0864 43.6512 10.1358 43.6145 10.2138L39.6135 18.8687C39.4861 19.1441 39.6867 19.4594 39.9908 19.4594L42.2771 19.4625L43.7053 16.3738C43.8549 16.0522 44.3119 16.0522 44.46 16.3738L45.8881 19.4785C46.0155 19.7571 45.8101 20.0755 45.5044 20.0675C44.2195 20.0357 42.1275 20.2363 40.0625 21.4973C38.2729 22.5895 37.3542 23.8887 36.9801 24.7341C36.832 25.0685 37.0087 25.3407 37.3749 25.3407H39.5403C41.1833 23.4938 43.5158 22.7264 45.5331 22.7806H50.327L44.5173 10.2154C44.4807 10.1374 44.4026 10.088 44.3167 10.088L44.3151 10.0864Z" fill="white"/>
<path d="M10.1348 8.08814V26.2783C10.1348 26.2783 11.106 26.3309 11.6919 25.4106V7.22042C11.6919 7.22042 10.7207 7.1631 10.1348 8.08973V8.08814Z" fill="white"/>
<path d="M13.4258 3.38965V21.7566C13.4258 21.7566 13.9098 22.6179 14.9829 22.6163V4.25896C14.9829 4.25896 14.5021 3.39442 13.4258 3.38965Z" fill="white"/>
<path d="M16.7129 10.5304V28.7047C16.7129 28.7047 17.6873 28.7573 18.2716 27.837V9.66114C18.2716 9.66114 17.3259 9.59586 16.7129 10.5304Z" fill="white"/>
<path d="M20 5.83203V24.1958C20 24.1958 20.4633 25.0603 21.5571 25.0683V6.70134C21.5571 6.70134 21.089 5.84477 20 5.83203Z" fill="white"/>
<path d="M23.2891 11.5972V29.9689C23.2891 29.9689 23.7556 30.827 24.8462 30.8382V12.4665C24.8462 12.4665 24.3717 11.5988 23.2891 11.5988V11.5972Z" fill="white"/>
<path d="M29.8719 5.13146C28.2654 3.5234 26.393 2.26084 24.3089 1.3772C22.15 0.463312 19.8557 0 17.4914 0C15.1271 0 12.8328 0.463312 10.6738 1.3772C8.58974 2.25925 6.71738 3.5234 5.11092 5.13146C1.81041 8.43675 -0.0078125 12.8279 -0.0078125 17.5008C-0.0078125 22.1737 1.81041 26.5648 5.11092 29.8685C6.71738 31.4766 8.58974 32.7392 10.6738 33.6228C12.8328 34.5367 15.1271 35.0016 17.4914 35.0016C19.8557 35.0016 22.15 34.5383 24.3089 33.6228C26.393 32.7407 28.2654 31.4766 29.8719 29.8685C33.174 26.5633 34.9922 22.1705 34.9922 17.5008C34.9922 12.831 33.174 8.43675 29.8719 5.13146ZM17.4914 33.7231C8.56427 33.7231 1.30093 26.4454 1.30093 17.5008C1.30093 8.55616 8.56427 1.2769 17.4914 1.2769C26.4185 1.2769 33.6819 8.55456 33.6819 17.5008C33.6819 26.447 26.4185 33.7231 17.4914 33.7231Z" fill="white"/>
<path d="M51.7555 21.3027C51.7555 18.8922 53.6008 17.1504 56.0798 17.1504C57.3949 17.1504 58.5253 17.6233 59.2736 18.4989L58.3056 19.4096C57.7181 18.776 56.9905 18.4639 56.1498 18.4639C54.4781 18.4639 53.2664 19.6405 53.2664 21.3011C53.2664 22.9617 54.4765 24.1383 56.1498 24.1383C56.992 24.1383 57.7181 23.8262 58.3056 23.1814L59.2736 24.1033C58.5237 24.9789 57.3933 25.4518 56.067 25.4518C53.5992 25.4518 51.7539 23.71 51.7539 21.2995L51.7555 21.3027Z" fill="white"/>
<path d="M60.2653 21.3027C60.2653 18.8922 62.1106 17.1504 64.5895 17.1504C65.9046 17.1504 67.035 17.6233 67.7833 18.4989L66.8153 19.4096C66.2278 18.776 65.5002 18.4639 64.6596 18.4639C62.9878 18.4639 61.7762 19.6405 61.7762 21.3011C61.7762 22.9617 62.9862 24.1383 64.6596 24.1383C65.5018 24.1383 66.2278 23.8262 66.8153 23.1814L67.7833 24.1033C67.0335 24.9789 65.903 25.4518 64.5768 25.4518C62.109 25.4518 60.2637 23.71 60.2637 21.2995L60.2653 21.3027Z" fill="white"/>
<path d="M68.7773 21.3027C68.7773 18.9161 70.6226 17.1504 73.1255 17.1504C75.6283 17.1504 77.4736 18.9033 77.4736 21.3027C77.4736 23.702 75.6283 25.455 73.1255 25.455C70.6226 25.455 68.7773 23.6909 68.7773 21.3027ZM75.9611 21.3027C75.9611 19.6532 74.751 18.4655 73.1239 18.4655C71.4967 18.4655 70.2867 19.6532 70.2867 21.3027C70.2867 22.9521 71.4967 24.1399 73.1239 24.1399C74.751 24.1399 75.9611 22.9521 75.9611 21.3027Z" fill="white"/>
<path d="M79.3613 17.2666H80.8611V24.0714H85.0819V25.3403H79.3613V17.2682V17.2666Z" fill="white"/>
<path d="M92.1691 23.4697H88.133L87.337 25.3373H85.791L89.4243 17.2651H90.9002L94.5446 25.3373H92.9763L92.1691 23.4697ZM91.674 22.2931L90.1519 18.7649L88.6409 22.2931H91.674Z" fill="white"/>
<path d="M95.5527 17.2666H99.0809C101.698 17.2666 103.486 18.881 103.486 21.3027C103.486 23.7243 101.698 25.3387 99.0809 25.3387H95.5527V17.2666ZM99.0125 24.0714C100.812 24.0714 101.975 22.976 101.975 21.3043C101.975 19.6325 100.81 18.5371 99.0125 18.5371H97.0525V24.073H99.0125V24.0714Z" fill="white"/>
<path d="M111.432 24.081V25.3387H105.377V17.2666H111.269V18.5228H106.875V20.6212H110.773V21.8551H106.875V24.081H111.43H111.432Z" fill="white"/>
<path d="M112.723 24.4854L113.242 23.3199C113.888 23.839 114.913 24.2083 115.905 24.2083C117.163 24.2083 117.693 23.7578 117.693 23.1591C117.693 21.4173 112.896 22.5589 112.896 19.5609C112.896 18.2569 113.934 17.1504 116.149 17.1504C117.117 17.1504 118.133 17.4035 118.836 17.8653L118.364 19.0307C117.638 18.604 116.842 18.397 116.138 18.397C114.893 18.397 114.385 18.881 114.385 19.4924C114.385 21.2103 119.171 20.0927 119.171 23.0556C119.171 24.3469 118.122 25.455 115.907 25.455C114.651 25.455 113.393 25.0633 112.724 24.487L112.723 24.4854Z" fill="white"/>
<path d="M125.984 17.1299H124.326V25.3405H125.984V17.1299Z" fill="white"/>
<path d="M133.995 19.2043C134.514 19.7058 134.774 20.4509 134.774 21.4364V25.3404H133.18V21.6402C133.18 21.0448 133.04 20.5958 132.758 20.2949C132.478 19.9924 132.078 19.8427 131.559 19.8427C130.973 19.8427 130.508 20.0194 130.169 20.3729C129.829 20.7263 129.66 21.2342 129.66 21.8966V25.3404H128.064V18.5276H129.582V19.408C129.846 19.0928 130.177 18.8556 130.577 18.6932C130.976 18.5324 131.427 18.4512 131.929 18.4512C132.787 18.4512 133.476 18.7027 133.995 19.2043Z" fill="white"/>
<path d="M140.717 24.9713C140.529 25.1241 140.303 25.2388 140.034 25.3152C139.767 25.3916 139.483 25.4298 139.186 25.4298C138.437 25.4298 137.859 25.234 137.45 24.8423C137.041 24.4507 136.837 23.8807 136.837 23.1324V19.8542H135.715V18.5789H136.837V17.1284H138.433V18.5789H140.257V19.8542H138.433V23.0942C138.433 23.4253 138.514 23.6785 138.675 23.8536C138.837 24.0287 139.069 24.1147 139.377 24.1147C139.733 24.1147 140.031 24.0208 140.27 23.8345L140.716 24.9697L140.717 24.9713Z" fill="white"/>
<path d="M148.001 22.4445H142.657C142.751 22.946 142.994 23.3441 143.391 23.637C143.785 23.93 144.277 24.0765 144.863 24.0765C145.612 24.0765 146.228 23.8297 146.713 23.3361L147.568 24.3185C147.263 24.6847 146.876 24.9601 146.408 25.148C145.94 25.3342 145.413 25.4282 144.827 25.4282C144.078 25.4282 143.419 25.2785 142.849 24.9808C142.279 24.6831 141.84 24.2691 141.529 23.7373C141.219 23.2056 141.064 22.6037 141.064 21.9318C141.064 21.26 141.216 20.6709 141.517 20.1391C141.819 19.6073 142.238 19.1934 142.773 18.8956C143.309 18.5979 143.913 18.4482 144.585 18.4482C145.257 18.4482 145.841 18.5947 146.365 18.8893C146.887 19.1822 147.296 19.5946 147.589 20.1264C147.882 20.6581 148.028 21.2727 148.028 21.9701C148.028 22.0799 148.019 22.2375 148.003 22.4413M143.289 20.1773C142.935 20.4798 142.72 20.881 142.644 21.3826H146.51C146.441 20.889 146.233 20.4894 145.884 20.1837C145.535 19.878 145.102 19.7235 144.583 19.7235C144.064 19.7235 143.641 19.8748 143.289 20.1757" fill="white"/>
<path d="M156.141 18.528V24.3074C156.141 26.7052 154.917 27.9041 152.466 27.9041C151.812 27.9041 151.191 27.8213 150.604 27.6557C150.016 27.4901 149.532 27.2497 149.15 26.9344L149.865 25.7356C150.162 25.9823 150.538 26.1798 150.994 26.3294C151.449 26.4775 151.909 26.5523 152.377 26.5523C153.125 26.5523 153.675 26.382 154.023 26.0429C154.372 25.7021 154.547 25.1847 154.547 24.4857V24.1291C154.275 24.4268 153.944 24.6529 153.552 24.8058C153.16 24.9586 152.731 25.035 152.264 25.035C151.618 25.035 151.033 24.8965 150.51 24.6211C149.987 24.344 149.573 23.9556 149.272 23.454C148.97 22.9525 148.82 22.3777 148.82 21.7313C148.82 21.0849 148.972 20.5134 149.272 20.015C149.575 19.5167 149.987 19.133 150.51 18.8607C151.033 18.5885 151.618 18.4531 152.264 18.4531C152.758 18.4531 153.207 18.5343 153.611 18.6951C154.015 18.8575 154.353 19.1027 154.625 19.4355V18.5295H156.143L156.141 18.528ZM153.992 23.1388C154.378 22.7774 154.573 22.3077 154.573 21.7297C154.573 21.1518 154.38 20.6964 153.992 20.3398C153.605 19.9832 153.11 19.8033 152.506 19.8033C151.903 19.8033 151.395 19.9816 151.008 20.3398C150.621 20.6964 150.427 21.1614 150.427 21.7297C150.427 22.2981 150.619 22.7774 151.008 23.1388C151.395 23.5002 151.895 23.6817 152.506 23.6817C153.117 23.6817 153.605 23.5018 153.992 23.1388Z" fill="white"/>
<path d="M161.995 18.4513V19.9686C161.86 19.9431 161.735 19.9304 161.625 19.9304C161.005 19.9304 160.521 20.1119 160.172 20.4733C159.823 20.8347 159.648 21.3554 159.648 22.0352V25.3389H158.053V18.5261H159.572V19.5212C160.03 18.8063 160.839 18.4497 161.995 18.4497" fill="white"/>
<path d="M168.036 19.1724C168.568 19.6532 168.834 20.3777 168.834 21.3473V25.3404H167.327V24.5109C167.132 24.8086 166.853 25.0363 166.492 25.1939C166.13 25.3515 165.694 25.4295 165.184 25.4295C164.675 25.4295 164.227 25.342 163.845 25.1684C163.463 24.9949 163.167 24.7513 162.959 24.4408C162.75 24.1303 162.646 23.7801 162.646 23.3884C162.646 22.7754 162.874 22.285 163.33 21.9157C163.785 21.5463 164.501 21.36 165.479 21.36H167.24V21.2581C167.24 20.7821 167.097 20.4159 166.813 20.1611C166.528 19.9064 166.105 19.779 165.544 19.779C165.162 19.779 164.785 19.8395 164.415 19.9573C164.046 20.0767 163.732 20.2423 163.478 20.4541L162.852 19.2934C163.209 19.0212 163.638 18.8126 164.14 18.6677C164.641 18.5228 165.173 18.4512 165.735 18.4512C166.738 18.4512 167.506 18.6916 168.037 19.1724M166.584 23.995C166.894 23.8119 167.112 23.5508 167.241 23.2101V22.4188H165.595C164.676 22.4188 164.216 22.7213 164.216 23.3247C164.216 23.6145 164.331 23.8437 164.562 24.0141C164.791 24.1845 165.11 24.2688 165.519 24.2688C165.928 24.2688 166.273 24.1781 166.584 23.995Z" fill="white"/>
<path d="M174.792 24.9713C174.604 25.1241 174.378 25.2388 174.109 25.3152C173.841 25.3916 173.558 25.4298 173.26 25.4298C172.512 25.4298 171.934 25.234 171.524 24.8423C171.115 24.4507 170.912 23.8807 170.912 23.1324V19.8542H169.789V18.5789H170.912V17.1284H172.507V18.5789H174.331V19.8542H172.507V23.0942C172.507 23.4253 172.588 23.6785 172.749 23.8536C172.911 24.0287 173.144 24.1147 173.451 24.1147C173.808 24.1147 174.105 24.0208 174.344 23.8345L174.79 24.9697L174.792 24.9713Z" fill="white"/>
<path d="M182.076 22.4445H176.731C176.825 22.946 177.068 23.3441 177.465 23.637C177.86 23.93 178.352 24.0765 178.938 24.0765C179.686 24.0765 180.302 23.8297 180.788 23.3361L181.643 24.3185C181.337 24.6847 180.95 24.9601 180.482 25.148C180.014 25.3342 179.487 25.4282 178.901 25.4282C178.153 25.4282 177.493 25.2785 176.923 24.9808C176.353 24.6831 175.914 24.2691 175.604 23.7373C175.293 23.2056 175.139 22.6037 175.139 21.9318C175.139 21.26 175.29 20.6709 175.591 20.1391C175.892 19.6073 176.312 19.1934 176.847 18.8956C177.382 18.5979 177.987 18.4482 178.659 18.4482C179.331 18.4482 179.915 18.5947 180.439 18.8893C180.961 19.1822 181.37 19.5946 181.663 20.1264C181.956 20.6581 182.103 21.2727 182.103 21.9701C182.103 22.0799 182.095 22.2375 182.077 22.4413M177.363 20.1773C177.009 20.4798 176.795 20.881 176.718 21.3826H180.584C180.515 20.889 180.307 20.4894 179.958 20.1837C179.609 19.878 179.176 19.7235 178.657 19.7235C178.138 19.7235 177.715 19.8748 177.363 20.1757" fill="white"/>
<path d="M190.126 15.875V25.3403H188.596V24.4598C188.332 24.783 188.007 25.025 187.62 25.1874C187.233 25.3482 186.805 25.4294 186.338 25.4294C185.684 25.4294 185.095 25.2845 184.571 24.9964C184.047 24.7066 183.638 24.2974 183.34 23.7656C183.043 23.2339 182.895 22.6241 182.895 21.9347C182.895 21.2453 183.043 20.6387 183.34 20.1101C183.638 19.5831 184.049 19.1739 184.571 18.8857C185.093 18.596 185.682 18.4527 186.338 18.4527C186.789 18.4527 187.201 18.5291 187.575 18.6819C187.95 18.8348 188.268 19.0641 188.532 19.3713V15.8766H190.126V15.875ZM187.563 23.8039C187.868 23.6303 188.11 23.3803 188.29 23.0571C188.469 22.7339 188.558 22.3598 188.558 21.9347C188.558 21.5096 188.469 21.1354 188.29 20.8122C188.112 20.489 187.87 20.2406 187.563 20.0655C187.257 19.892 186.911 19.8044 186.529 19.8044C186.147 19.8044 185.802 19.892 185.496 20.0655C185.19 20.2391 184.948 20.489 184.768 20.8122C184.59 21.1354 184.501 21.5096 184.501 21.9347C184.501 22.3598 184.59 22.7339 184.768 23.0571C184.947 23.3803 185.189 23.6287 185.496 23.8039C185.802 23.9774 186.147 24.065 186.529 24.065C186.911 24.065 187.257 23.9774 187.563 23.8039Z" fill="white"/>
<path d="M191.509 12.6382H191.008V12.2832H192.441V12.6382H191.931V14.1492H191.508V12.6382H191.509Z" fill="white"/>
<path d="M194.234 13.4344C194.226 13.21 194.217 12.9393 194.217 12.667H194.209C194.15 12.9043 194.073 13.1702 194.002 13.3899L193.774 14.1175H193.444L193.245 13.3946C193.185 13.1765 193.121 12.9106 193.077 12.667H193.07C193.059 12.9186 193.051 13.2068 193.037 13.4392L193.003 14.1477H192.613L192.733 12.2817H193.295L193.478 12.9043C193.535 13.1208 193.594 13.3532 193.635 13.5714H193.643C193.696 13.3548 193.76 13.1097 193.82 12.9011L194.019 12.2817H194.57L194.672 14.1477H194.26L194.232 13.4344H194.234Z" fill="white"/>
<path d="M192.841 15.8818C191.371 15.8818 190.176 14.6861 190.176 13.2165C190.176 11.747 191.371 10.5513 192.841 10.5513C194.311 10.5513 195.506 11.747 195.506 13.2165C195.506 14.6861 194.311 15.8818 192.841 15.8818ZM192.841 10.8442C191.534 10.8442 190.469 11.9078 190.469 13.2149C190.469 14.5221 191.532 15.5856 192.841 15.5856C194.15 15.5856 195.212 14.5221 195.212 13.2149C195.212 11.9078 194.148 10.8442 192.841 10.8442Z" fill="white"/>
</svg>
