<svg width="14" height="14" viewBox="0 0 14 14" fill="none" xmlns="http://www.w3.org/2000/svg">
<circle cx="7" cy="7" r="7" fill="#0C7479"/>
<path d="M4.37285 3.63886V10.1354C4.37285 10.1354 4.71962 10.1539 4.92911 9.82519V3.32855C4.92911 3.32855 4.58246 3.3078 4.37285 3.63886Z" fill="white"/>
<path d="M5.54726 1.9606V8.52048C5.54726 8.52048 5.71992 8.8282 6.10353 8.82783V2.27091C6.10353 2.27091 5.93198 1.9622 5.54726 1.9606Z" fill="white"/>
<path d="M6.72168 4.51084L6.7218 11.0015C6.7218 11.0015 7.06956 11.0205 7.27807 10.6914V4.20029C7.27807 4.20029 6.94026 4.17684 6.72168 4.51084Z" fill="white"/>
<path d="M7.89602 2.83288L7.89541 9.39141C7.89541 9.39141 8.06143 9.69999 8.45229 9.70319V3.14306C8.45229 3.14306 8.28504 2.83706 7.89602 2.83288Z" fill="white"/>
<path d="M9.0705 4.89178V11.453C9.0705 11.453 9.23726 11.7594 9.62677 11.7632L9.62714 5.20183C9.62714 5.20183 9.45756 4.89178 9.0705 4.89178Z" fill="white"/>
<path d="M6.99974 12.7939C3.81135 12.7939 1.21741 10.1946 1.21741 6.99982C1.21741 3.80504 3.81135 1.20582 6.99974 1.20582C10.1881 1.20582 12.7822 3.80504 12.7822 6.99982C12.7822 10.1946 10.1881 12.7939 6.99974 12.7939ZM11.4214 2.58248C10.8474 2.00804 10.179 1.55702 9.43466 1.2418C8.66338 0.915407 7.84408 0.749755 6.99974 0.749755C6.15527 0.749755 5.3361 0.915407 4.56482 1.2418C3.82043 1.55702 3.15206 2.00804 2.57823 2.58248C1.39915 3.76267 0.749802 5.33151 0.749802 6.99982C0.749802 8.66824 1.39915 10.2371 2.57823 11.4173C3.15206 11.9916 3.82043 12.4427 4.56482 12.7578C5.3361 13.0843 6.15527 13.25 6.99974 13.25C7.84408 13.25 8.66338 13.0843 9.43466 12.7578C10.179 12.4427 10.8474 11.9916 11.4214 11.4173C12.6005 10.237 13.2498 8.66824 13.2498 6.99982C13.2498 5.33151 12.6005 3.76267 11.4214 2.58248Z" fill="white"/>
</svg>
